<?xml version="1.0" encoding="UTF-8"?>
<svg version="1.1" xmlns="http://www.w3.org/2000/svg" width="925" height="623">
<path d="M0 0 C305.25 0 610.5 0 925 0 C925 205.59 925 411.18 925 623 C619.75 623 314.5 623 0 623 C0 417.41 0 211.82 0 0 Z " fill="#FEFEFE" transform="translate(0,0)"/>
<path d="M0 0 C2.64128473 2.30657647 5.249532 4.63927459 7.828125 7.015625 C9.73861763 8.76118302 11.69004214 10.41857451 13.6875 12.0625 C16.76688555 14.69176655 19.40079912 17.55701604 22.01171875 20.6484375 C23.44523984 22.34387894 24.91033362 24.01280184 26.39453125 25.6640625 C44.29572024 45.76816571 58.76535686 70.3429031 67 96 C67.25475098 96.77939941 67.50950195 97.55879883 67.77197266 98.36181641 C71.36649183 109.46170894 74.27044475 120.45435966 76 132 C76.20496094 133.299375 76.40992188 134.59875 76.62109375 135.9375 C78.68966918 150.52458282 78.18895224 165.30532972 78 180 C75.36 180 72.72 180 70 180 C69.92483154 179.10394043 69.84966309 178.20788086 69.7722168 177.28466797 C69.48294197 173.88814858 69.18555759 170.49252557 68.88305664 167.09716797 C68.75491537 165.64106079 68.62980351 164.18468311 68.50805664 162.72802734 C67.68608265 152.92522647 66.27347367 143.58751877 64 134 C63.68434082 132.53542358 63.68434082 132.53542358 63.36230469 131.04125977 C57.7618517 105.15532942 45.07369263 80.8536077 29 60 C28.23042969 58.9996875 27.46085937 57.999375 26.66796875 56.96875 C24.50379366 54.25475745 22.28091787 51.61657134 20 49 C19.54657227 48.47954102 19.09314453 47.95908203 18.62597656 47.42285156 C11.95512945 39.82512656 5.00812725 33.21135576 -3 27 C-3.77472656 26.34773438 -4.54945313 25.69546875 -5.34765625 25.0234375 C-45.55364245 -8.67172957 -98.94397859 -20.49597458 -150.28857422 -16.58178711 C-192.93441289 -12.3551284 -233.16771215 7.73233571 -264 37 C-264.52561523 37.49306641 -265.05123047 37.98613281 -265.59277344 38.49414062 C-306.2689229 76.87312021 -320.85063962 125.93171606 -326 180 C-344.81 180 -363.62 180 -383 180 C-383 125.03658348 -357.54031517 67.72201686 -320 28 C-318.78572343 26.60933378 -317.57714048 25.21367037 -316.375 23.8125 C-310.72357781 17.34259597 -304.57958977 11.51601108 -298 6 C-297.48969238 5.57058105 -296.97938477 5.14116211 -296.45361328 4.69873047 C-273.42243989 -14.56117925 -245.81916404 -31.1186224 -217 -40 C-216.28279785 -40.22252441 -215.5655957 -40.44504883 -214.82666016 -40.67431641 C-199.75740611 -45.27126031 -184.60792908 -47.97197565 -169 -50 C-168.27288818 -50.1023999 -167.54577637 -50.2047998 -166.79663086 -50.31030273 C-108.26046707 -57.88362172 -44.69503512 -38.05000727 0 0 Z " fill="#1C4B5D" transform="translate(617,190)"/>
<path d="M0 0 C-0.04640625 1.02480469 -0.0928125 2.04960937 -0.140625 3.10546875 C-0.17816011 4.46611656 -0.21455841 5.82679605 -0.25 7.1875 C-0.30027344 8.19780273 -0.30027344 8.19780273 -0.3515625 9.22851562 C-0.42121511 12.79821207 -0.12387524 14.8021249 1.78515625 17.8515625 C7.16079801 23.06602982 13.77813568 24.72948683 21 26 C17.87425858 29.62224908 13.60667869 31.67216659 9.47460938 33.95117188 C7.51616239 35.05164108 7.51616239 35.05164108 5 37 C5 38.32 5 39.64 5 41 C15.28261845 45.07424505 25.66526916 48.52451809 36.27954102 51.63891602 C37.22369873 51.91791748 38.16785645 52.19691895 39.140625 52.484375 C40.40181152 52.85127441 40.40181152 52.85127441 41.68847656 53.22558594 C43.92243634 53.97401437 45.92414281 54.89215912 48 56 C46.02 57.32 44.04 58.64 42 60 C42.64960693 60.08040527 43.29921387 60.16081055 43.96850586 60.24365234 C46.95874196 60.61633534 49.94810572 60.99562599 52.9375 61.375 C53.95908203 61.50132812 54.98066406 61.62765625 56.03320312 61.7578125 C71.45808745 63.72904372 71.45808745 63.72904372 76 66 C75.67 66.99 75.34 67.98 75 69 C72.70958918 69.95820156 70.56260392 70.69494404 68.1875 71.375 C67.48915039 71.58415039 66.79080078 71.79330078 66.07128906 72.00878906 C57.79726478 74.4384916 49.41769828 76.4860439 41.03613281 78.50683594 C39.02155695 78.99477877 37.01032925 79.49487511 35 80 C35 80.66 35 81.32 35 82 C49.25163313 83.12435369 63.45929559 84.08784327 77.75 84.5 C87.61493366 84.78829654 97.24990933 85.44059109 107 87 C107.33 87.99 107.66 88.98 108 90 C103.77377415 91.53923043 99.84216811 92.41300512 95.37817383 92.9296875 C94.07854202 93.08324707 92.77891022 93.23680664 91.43989563 93.39501953 C90.02895906 93.55517366 88.61800375 93.71516273 87.20703125 93.875 C85.73648522 94.04618381 84.26600179 94.21790603 82.795578 94.39013672 C78.92212496 94.84223837 75.04780943 95.28649026 71.17327881 95.72924805 C68.06373808 96.08587367 64.95484449 96.44795054 61.84597301 96.81035709 C48.8961684 98.3198579 35.94645526 99.8242109 22.9765625 101.15234375 C16.80738909 101.78448499 10.67992458 102.5402248 4.5625 103.5625 C3.38204102 103.75102539 3.38204102 103.75102539 2.17773438 103.94335938 C-1.25677897 104.50070181 -4.63334719 105.12408102 -8 106 C-4.3056952 106.8468994 -0.85764548 107.14327254 2.92919922 107.18945312 C4.10167206 107.20617065 5.2741449 107.22288818 6.48214722 107.2401123 C8.37430466 107.26047546 8.37430466 107.26047546 10.3046875 107.28125 C12.30939416 107.30939401 14.31410076 107.33754261 16.31880379 107.36594391 C19.83748761 107.41449531 23.3562457 107.4569198 26.875 107.5 C31.71287518 107.5597787 36.55068025 107.62276242 41.38843155 107.69187927 C43.30170807 107.71786082 45.21504896 107.73896077 47.12838745 107.7598877 C54.63756428 107.86415303 62.07861476 108.21365692 69.5667572 108.77053833 C74.1131025 109.07439449 78.65576788 109.18338804 83.21020508 109.29077148 C94.63255393 109.56744847 105.95014513 110.22163838 117.3125 111.4375 C118.4677417 111.5597998 119.6229834 111.68209961 120.81323242 111.80810547 C126.6975783 112.4776419 132.29751177 113.39552402 138 115 C138 115.66 138 116.32 138 117 C131.46260426 118.86162635 125.12946939 119.60144664 118.359375 120.08984375 C117.23118347 120.17362778 116.10299194 120.2574118 114.94061279 120.34373474 C101.38915187 121.27775202 87.82843785 121.42074611 74.25 121.5625 C70.42057639 121.60668009 66.59122775 121.65332359 62.76190186 121.70530701 C60.40913784 121.73688221 58.05630643 121.76388491 55.70343018 121.78553772 C50.70410571 121.8493525 45.91045522 121.93820767 41 123 C54.92195596 132.28130397 81.97131736 129.13031373 98.4284668 129.88214111 C106.28623304 130.24227941 114.14326415 130.61810109 122 131 C122.84715576 131.0410083 123.69431152 131.0820166 124.56713867 131.12426758 C157.44186196 132.73108188 157.44186196 132.73108188 166 135 C166 135.66 166 136.32 166 137 C160.58428147 138.73621299 155.44502434 139.51450808 149.7890625 140 C148.91117065 140.0806218 148.03327881 140.16124359 147.12878418 140.24430847 C144.29473834 140.50276538 141.45993722 140.75152957 138.625 141 C136.67817885 141.17570345 134.73140154 141.35189331 132.78466797 141.52856445 C121.24565172 142.56895568 109.70243179 143.56307309 98.14697266 144.40429688 C94.02678005 144.71109596 90.0302731 145.03037363 86 146 C93.91336569 149.13978985 101.9664485 150.14229969 110.35189819 151.19171143 C112.84296365 151.50381679 115.33233752 151.82714535 117.8215332 152.15380859 C121.08409966 152.58171559 124.34701134 153.00674591 127.61035156 153.42871094 C156.77099602 157.21119788 156.77099602 157.21119788 162 160 C162.33 160.99 162.66 161.98 163 163 C56.74 163 -49.52 163 -159 163 C-153.87198008 157.87198008 -147.6200693 157.49783858 -140.7109375 156.5625 C-139.36317734 156.37409546 -139.36317734 156.37409546 -137.9881897 156.18188477 C-136.08397707 155.91701811 -134.17937292 155.65495304 -132.27441406 155.39550781 C-129.43190525 155.00776242 -126.59092071 154.61013243 -123.75 154.2109375 C-111.52429798 152.51241338 -99.2902396 151.1372109 -87 150 C-87.72503723 149.97716446 -88.45007446 149.95432892 -89.19708252 149.93080139 C-96.08060205 149.7134487 -102.96402006 149.49309905 -109.84733963 149.26950932 C-113.38483097 149.15470398 -116.92235003 149.04099665 -120.45996094 148.92993164 C-124.54113011 148.8017505 -128.622123 148.66855451 -132.703125 148.53515625 C-133.95361633 148.49656998 -135.20410767 148.4579837 -136.49249268 148.41822815 C-144.02113045 148.1675578 -151.50018904 147.70651096 -159 147 C-158.67 145.35 -158.34 143.7 -158 142 C-152.05331949 140.5558312 -146.21952572 139.53524777 -140.125 139 C-139.23006836 138.91878906 -138.33513672 138.83757812 -137.41308594 138.75390625 C-124.88836066 137.70984451 -112.31485628 137.27363088 -99.75830078 136.78515625 C-89.70530934 136.37734139 -79.7650856 135.67636747 -69.77636719 134.45727539 C-65.77243803 133.97244482 -61.76813489 133.58791425 -57.75 133.24609375 C-55.89439458 133.0798235 -55.89439458 133.0798235 -54 132 C-57.0170388 129.9886408 -58.42997411 129.58570405 -61.91333008 129.04199219 C-63.42088364 128.80067818 -63.42088364 128.80067818 -64.95889282 128.55448914 C-66.0514035 128.38697647 -67.14391418 128.21946381 -68.26953125 128.046875 C-69.97476456 127.77560539 -69.97476456 127.77560539 -71.71444702 127.49885559 C-74.15084605 127.11131681 -76.58771401 126.72671691 -79.0249939 126.34475708 C-85.31404554 125.357179 -91.59869997 124.34269542 -97.8828125 123.32421875 C-99.1134996 123.12477158 -100.34418671 122.9253244 -101.61216736 122.71983337 C-111.170723 121.15947642 -120.69176582 119.4673933 -130.1875 117.5625 C-131.96120972 117.21106934 -131.96120972 117.21106934 -133.77075195 116.85253906 C-142.11071763 115.13468502 -142.11071763 115.13468502 -146 113 C-146 112.34 -146 111.68 -146 111 C-132.71085284 104.35542642 -110.12178934 107.35568714 -95.6875 106.9375 C-91.82200798 106.82095128 -87.95659859 106.7023259 -84.09126282 106.58070374 C-81.70821469 106.50617367 -79.32506904 106.4346681 -76.94181824 106.3669281 C-63.27080531 106.43812576 -63.27080531 106.43812576 -50 104 C-50.62845825 103.92118591 -51.2569165 103.84237183 -51.90441895 103.76116943 C-58.5261789 102.9287836 -65.14608516 102.08265316 -71.76513672 101.22900391 C-74.22596208 100.91339799 -76.68721959 100.60114081 -79.14892578 100.29248047 C-92.66174447 98.5958283 -105.90647699 96.84123786 -119 93 C-119 91.68 -119 90.36 -119 89 C-116.33989074 88.11329691 -114.28937809 87.75193757 -111.52734375 87.5 C-110.63668213 87.41814453 -109.74602051 87.33628906 -108.82836914 87.25195312 C-107.87438232 87.16880859 -106.92039551 87.08566406 -105.9375 87 C-104.46108032 86.86754883 -104.46108032 86.86754883 -102.95483398 86.73242188 C-96.10018132 86.13497011 -89.25114747 85.72177098 -82.37915039 85.39672852 C-75.18893457 85.02336996 -68.11617959 84.08107153 -61 83 C-63.23449691 80.49596024 -65.2420396 79.27715445 -68.34375 78.02734375 C-69.17777344 77.68509766 -70.01179688 77.34285156 -70.87109375 76.99023438 C-71.73863281 76.64283203 -72.60617187 76.29542969 -73.5 75.9375 C-75.21989717 75.24110776 -76.93869656 74.54199659 -78.65625 73.83984375 C-79.41744141 73.53425537 -80.17863281 73.22866699 -80.96289062 72.91381836 C-83 72 -83 72 -86 70 C-85 67 -85 67 -83.43359375 65.90625 C-80.05020265 64.64630339 -76.61261112 64.06667899 -73.0625 63.5 C-72.27907227 63.37036865 -71.49564453 63.2407373 -70.68847656 63.10717773 C-64.55902395 62.1380681 -58.43264536 61.56452406 -52.25 61.0625 C-43.67177587 60.35983073 -36.17331876 58.69450069 -28 56 C-33.61 52.7 -39.22 49.4 -45 46 C-41.09342337 42.09342337 -38.26655968 40.70443684 -33.25 39 C-31.81275019 38.48469533 -30.37653557 37.96649362 -28.94140625 37.4453125 C-28.25836426 37.19813477 -27.57532227 36.95095703 -26.87158203 36.69628906 C-19.28529327 33.87911565 -19.28529327 33.87911565 -14 28 C-14.99 27.938125 -15.98 27.87625 -17 27.8125 C-21.55290127 27.1527939 -25.6800445 25.20659117 -29 22 C-29.7265625 19.328125 -29.7265625 19.328125 -30 17 C-24.26605222 11.79984315 -17.87558302 8.1397355 -11.0625 4.5625 C-9.78282349 3.88888428 -9.78282349 3.88888428 -8.47729492 3.20166016 C-2.27307049 0 -2.27307049 0 0 0 Z " fill="#026939" transform="translate(483,207)"/>
<path d="M0 0 C4.79548673 2.1991424 8.49496207 5.62591496 12.3359375 9.18359375 C16.63856549 13.11662809 21.21827947 16.71806037 25.74609375 20.38671875 C28.48930515 22.62869181 31.23007935 24.87357637 33.96875 27.12109375 C35.88453295 28.68389841 37.80963075 30.23532976 39.7421875 31.77734375 C40.71285156 32.5559375 41.68351563 33.33453125 42.68359375 34.13671875 C43.55886719 34.8328125 44.43414063 35.52890625 45.3359375 36.24609375 C50.0774184 40.457328 52.28340579 43.66764467 53.0546875 49.8671875 C53.42200503 57.58085559 51.62288168 61.53644532 46.74609375 67.38671875 C46.13483643 68.12559326 46.13483643 68.12559326 45.51123047 68.87939453 C43.19843852 71.66712726 40.85571766 74.42653611 38.48828125 77.16796875 C36.06522027 79.98509155 33.77090337 82.88555418 31.49609375 85.82421875 C27.1081074 91.35650544 22.69285893 96.74607211 15.36328125 97.6953125 C14.00589844 97.75912109 14.00589844 97.75912109 12.62109375 97.82421875 C11.73164062 97.88480469 10.8421875 97.94539063 9.92578125 98.0078125 C2.01427346 96.46244427 -4.60042121 89.64400916 -10.62890625 84.57421875 C-12.12096015 83.33187078 -13.61314752 82.08968309 -15.10546875 80.84765625 C-15.81864258 80.25178711 -16.53181641 79.65591797 -17.26660156 79.04199219 C-19.82931504 76.90744705 -22.41517143 74.80209132 -25.00390625 72.69921875 C-26.75442268 71.26234768 -28.50439421 69.82481258 -30.25390625 68.38671875 C-30.80095215 67.94199219 -31.34799805 67.49726563 -31.91162109 67.0390625 C-33.67818056 65.60033335 -35.43534909 64.15073889 -37.19140625 62.69921875 C-37.73571289 62.25940674 -38.28001953 61.81959473 -38.84082031 61.36645508 C-43.76512447 57.26466024 -47.63531506 52.72468733 -48.5625 46.22265625 C-49.162389 34.77022984 -41.12207095 27.84556125 -34.06640625 19.67578125 C-31.44904865 16.63828769 -28.94215629 13.52110478 -26.44140625 10.38671875 C-19.03805696 1.28511013 -12.14892611 -3.305687 0 0 Z " fill="#1D4B5D" transform="translate(648.25390625,98.61328125)"/>
<path d="M0 0 C11.00045839 -0.07102004 21.99957367 -0.07000395 33 0 C33.81857483 0.00517639 34.63714966 0.01035278 35.48052979 0.01568604 C40.38815487 0.05121973 45.29444588 0.11395258 50.20129395 0.20852661 C51.76442273 0.23598218 53.32768322 0.25680943 54.89099121 0.27072144 C70.2385139 0.41909317 70.2385139 0.41909317 77 5 C81.50684249 9.85352268 82.17268494 12.67822031 82.25 19.25 C82.27578125 20.55453125 82.3015625 21.8590625 82.328125 23.203125 C81.91684678 27.9622016 80.48427004 31.21887595 77.4375 34.875 C76 36 76 36 74 36 C74 36.66 74 37.32 74 38 C74.86625 38.0928125 74.86625 38.0928125 75.75 38.1875 C79.43911231 39.51967945 81.28909007 42.57818014 83 46 C83.17794636 48.76546142 83.27761722 51.48263275 83.3125 54.25 C83.35600586 55.37728516 83.35600586 55.37728516 83.40039062 56.52734375 C83.46056884 61.83228458 82.51334238 64.7955083 79 69 C73.89719228 72.52336723 70.31394208 73.1487344 64.21484375 73.1328125 C63.41824844 73.13413177 62.62165314 73.13545105 61.80091858 73.1368103 C59.17974056 73.1387394 56.55866733 73.13235816 53.9375 73.125 C53.04861084 73.12411377 52.15972168 73.12322754 51.24389648 73.12231445 C33.81559926 73.10193781 16.41483909 72.65921981 -1 72 C-1.02561304 64.31771568 -1.04297584 56.6354426 -1.05493164 48.953125 C-1.05992238 46.34634998 -1.06671732 43.7395777 -1.07543945 41.1328125 C-1.16597155 13.35543511 -1.16597155 13.35543511 0 0 Z " fill="#1D4B5D" transform="translate(438,49)"/>
<path d="M0 0 C6.31149303 1.70040224 10.22808562 4.63894106 13.75 10.125 C15.21458509 12.73332802 16.62067879 15.34716852 18 18 C18.5161084 18.98000977 19.0322168 19.96001953 19.56396484 20.96972656 C21.98709407 25.57784636 24.40164915 30.18982637 26.76513672 34.82885742 C29.38866393 39.97670283 32.01224936 45.10131444 34.90234375 50.10546875 C39.37432923 57.88117487 43.19035477 64.76423658 41 74 C38.77274755 80.25303739 34.85086327 83.19682179 29.0859375 86.1875 C27 87 27 87 24 87 C22.6589995 84.5664433 21.32705144 82.12864699 20 79.6875 C19.6184375 78.99720703 19.236875 78.30691406 18.84375 77.59570312 C16 72.33984375 16 72.33984375 16 69 C16.66 69 17.32 69 18 69 C19.57847529 64.06726472 19.61265897 59.53255843 17.68652344 54.71435547 C17.08356445 53.60979004 16.48060547 52.50522461 15.859375 51.3671875 C15.53592102 50.76746124 15.21246704 50.16773499 14.87921143 49.54983521 C14.19664625 48.29072903 13.50712933 47.03536887 12.81103516 45.78369141 C11.7531723 43.88070663 10.7167575 41.96726807 9.68359375 40.05078125 C5.26334116 30.73425764 5.26334116 30.73425764 -2 24 C-8.64504843 23.21622506 -12.70154919 25.51188773 -18.25 28.75 C-19.05179688 29.1934375 -19.85359375 29.636875 -20.6796875 30.09375 C-24.60103984 32.32328143 -27.61400901 34.0517475 -30 38 C-30.23204834 45.96165873 -26.84784517 52.13695629 -23.1628418 58.99487305 C-22.18447302 60.81814103 -21.2305019 62.65267365 -20.27929688 64.49023438 C-16.5018518 71.88504422 -16.5018518 71.88504422 -11 78 C-8.75527795 78.57811642 -8.75527795 78.57811642 -6.4375 78.5625 C-2.44738619 78.67688775 -2.44738619 78.67688775 -0.453125 80.1171875 C1.59599916 82.77223548 3.11090694 85.60432225 4.6875 88.5625 C5.31011719 89.71878906 5.93273437 90.87507813 6.57421875 92.06640625 C8 95 8 95 8 97 C6.58671871 97.81837442 5.16921654 98.62946219 3.75 99.4375 C2.96109375 99.88996094 2.1721875 100.34242188 1.359375 100.80859375 C-3.1955206 103.1086652 -7.93788733 103.7823265 -13 103 C-24.53951757 98.57003539 -29.40290772 84.79075022 -34.75854492 74.5637207 C-35.92720091 72.33216616 -37.10256563 70.10425822 -38.27929688 67.87695312 C-40.17668324 64.27991881 -42.05557733 60.67365072 -43.92605591 57.06256104 C-44.97365024 55.05060597 -46.0365385 53.04733319 -47.10131836 51.04443359 C-47.74267171 49.81511596 -48.38341183 48.58547814 -49.0234375 47.35546875 C-49.86334229 45.76255005 -49.86334229 45.76255005 -50.72021484 44.13745117 C-52.85498813 38.90395794 -53.19515163 33.51382838 -52 28 C-49.45489108 23.22940049 -46.90746464 20.9241301 -42.1875 18.375 C-41.60508545 18.0557959 -41.0226709 17.7365918 -40.42260742 17.40771484 C-38.29231194 16.25082996 -36.14800233 15.12367866 -34 14 C-33.05801758 13.50564453 -32.11603516 13.01128906 -31.14550781 12.50195312 C-27.01322617 10.33673727 -22.87926673 8.17525643 -18.7331543 6.03662109 C-17.77578369 5.54242676 -16.81841309 5.04823242 -15.83203125 4.5390625 C-14.97327393 4.09771973 -14.1145166 3.65637695 -13.22973633 3.20166016 C-8.37368204 0.58461217 -5.6104305 -0.85438028 0 0 Z " fill="#1D4C5D" transform="translate(725,179)"/>
<path d="M0 0 C1.640625 2.6171875 1.640625 2.6171875 3.25 5.875 C3.79140625 6.94492188 4.3328125 8.01484375 4.890625 9.1171875 C6 12 6 12 5 15 C3.22279358 16.19596863 3.22279358 16.19596863 0.87915039 17.36010742 C-0.43242287 18.02045235 -0.43242287 18.02045235 -1.77049255 18.69413757 C-2.72150345 19.15987686 -3.67251434 19.62561615 -4.65234375 20.10546875 C-6.10804527 20.83157097 -6.10804527 20.83157097 -7.59315491 21.57234192 C-9.64790516 22.59484024 -11.70506489 23.61250855 -13.7644043 24.62573242 C-16.92587448 26.18177803 -20.07963897 27.75261101 -23.23242188 29.32617188 C-25.22612715 30.31598155 -27.22025393 31.30494276 -29.21484375 32.29296875 C-30.63832375 33.00068672 -30.63832375 33.00068672 -32.09056091 33.72270203 C-32.96809525 34.15347549 -33.84562958 34.58424896 -34.74975586 35.02807617 C-35.5239537 35.40985519 -36.29815155 35.79163422 -37.09580994 36.1849823 C-39 37 -39 37 -41 37 C-40.319375 38.6396875 -40.319375 38.6396875 -39.625 40.3125 C-39.36976563 40.92738281 -39.11453125 41.54226562 -38.8515625 42.17578125 C-37.93193308 44.26533932 -37.93193308 44.26533932 -36 47 C-14.22 36.11 -14.22 36.11 8 25 C10.50715891 27.50715891 11.6820514 28.95449479 13.1875 32 C13.53167969 32.680625 13.87585938 33.36125 14.23046875 34.0625 C15 36 15 36 15 39 C0.48 46.26 -14.04 53.52 -29 61 C-27.51799926 64.70500184 -26.091496 67.67262 -24 71 C-23.42814972 70.71185425 -22.85629944 70.4237085 -22.26712036 70.12683105 C-16.33266499 67.13753658 -10.39543693 64.153806 -4.45654297 61.17333984 C-2.23837323 60.0592159 -0.02092252 58.94365924 2.19580078 57.82666016 C5.37606362 56.22444459 8.55884857 54.62734326 11.7421875 53.03125 C12.73805878 52.52815308 13.73393005 52.02505615 14.75997925 51.50671387 C15.68078278 51.04623657 16.6015863 50.58575928 17.55029297 50.11132812 C18.3630368 49.7027356 19.17578064 49.29414307 20.01315308 48.87316895 C22 48 22 48 24 48 C26.31 52.95 28.62 57.9 31 63 C16.7184155 70.60854816 2.29760262 77.91267113 -12.1875 85.125 C-14.31715213 86.1873099 -16.44670994 87.2498089 -18.57617188 88.3125 C-23.7163672 90.87717193 -28.85770435 93.43954216 -34 96 C-36.9225328 93.45801865 -38.37317397 90.62802516 -40.09448242 87.18334961 C-40.38752762 86.60090988 -40.68057281 86.01847015 -40.98249817 85.41838074 C-41.94609156 83.49927679 -42.9009574 81.57597894 -43.85546875 79.65234375 C-44.52337954 78.31600343 -45.19170518 76.97987038 -45.86042786 75.64393616 C-47.25864045 72.84742136 -48.65270168 70.04888866 -50.04370117 67.2487793 C-51.82921396 63.65502328 -53.62358863 60.06578229 -55.42089367 56.47791195 C-56.80080227 53.72143079 -58.17672131 50.96297412 -59.55135536 48.20385933 C-60.21175565 46.8792035 -60.87324145 45.55508828 -61.5358181 44.2315197 C-62.45907674 42.38537204 -63.37710816 40.53671997 -64.29370117 38.68725586 C-65.07954842 37.10865028 -65.07954842 37.10865028 -65.88127136 35.49815369 C-67 33 -67 33 -67 31 C-58.71313958 26.79871201 -50.42096223 22.60816837 -42.12174511 18.43134212 C-38.26848875 16.49165258 -34.41718565 14.54827657 -30.57006836 12.59643555 C-26.85916178 10.71387164 -23.14349213 8.84104588 -19.42428017 6.97494698 C-18.00431681 6.26033659 -16.58612213 5.54220082 -15.16972923 4.82053947 C-13.18954116 3.81236773 -11.20350396 2.81677672 -9.21557617 1.82397461 C-8.08528488 1.25327744 -6.95499359 0.68258026 -5.79045105 0.09458923 C-3 -1 -3 -1 0 0 Z " fill="#1D4B5D" transform="translate(361,67)"/>
<path d="M0 0 C3.70044944 1.549832 6.04581087 3.80394671 8.86035156 6.63330078 C9.32910706 7.10176422 9.79786255 7.57022766 10.28082275 8.05288696 C11.82221432 9.59566695 13.35640873 11.14539964 14.890625 12.6953125 C15.96064255 13.76906192 17.03110381 14.84236933 18.10198975 15.91525269 C20.91431879 18.73520452 23.72058889 21.56111154 26.52563477 24.38830566 C29.39105523 27.2742137 32.26217168 30.15444257 35.1328125 33.03515625 C40.76079512 38.68456489 46.38238884 44.34027825 52 50 C51.0449028 51.12120157 50.08882049 52.24156401 49.13232422 53.36157227 C48.6000119 53.98556412 48.06769958 54.60955597 47.51925659 55.25245667 C45.79809702 57.23224136 43.998427 59.10154154 42.125 60.9375 C41.52945313 61.52402344 40.93390625 62.11054688 40.3203125 62.71484375 C39.66675781 63.35099609 39.66675781 63.35099609 39 64 C35.84795019 62.60652624 33.73828227 60.97514921 31.328125 58.5234375 C30.66425781 57.853125 30.00039063 57.1828125 29.31640625 56.4921875 C28.63449219 55.79351562 27.95257813 55.09484375 27.25 54.375 C26.55261719 53.66859375 25.85523438 52.9621875 25.13671875 52.234375 C23.41987512 50.49401297 21.70788168 48.74915019 20 47 C17.14220983 48.29719924 15.08991464 49.6636826 12.88378906 51.88916016 C12.30348938 52.4696109 11.7231897 53.05006165 11.12530518 53.64810181 C10.51161072 54.27211884 9.89791626 54.89613586 9.265625 55.5390625 C8.62759949 56.17991791 7.98957397 56.82077332 7.33221436 57.48104858 C5.30005931 59.52437821 3.27497782 61.57455982 1.25 63.625 C-0.1284453 65.0134786 -1.50734636 66.4015049 -2.88671875 67.7890625 C-6.26311894 71.18748697 -9.63319288 74.59207254 -13 78 C-11.60652624 81.15204981 -9.97514921 83.26171773 -7.5234375 85.671875 C-6.51796875 86.66767578 -6.51796875 86.66767578 -5.4921875 87.68359375 C-4.79351562 88.36550781 -4.09484375 89.04742187 -3.375 89.75 C-2.66859375 90.44738281 -1.9621875 91.14476562 -1.234375 91.86328125 C0.50598703 93.58012488 2.25084981 95.29211832 4 97 C2.23800109 100.76363368 0.03798466 103.32604243 -2.875 106.3125 C-3.73867188 107.21613281 -4.60234375 108.11976563 -5.4921875 109.05078125 C-8 111 -8 111 -9.85296631 110.90431213 C-12.8413184 109.64564392 -14.57765568 107.78094178 -16.86035156 105.48022461 C-17.32910706 105.0119072 -17.79786255 104.54358978 -18.28082275 104.06108093 C-19.82464325 102.51517453 -21.3575726 100.95892317 -22.890625 99.40234375 C-23.96042394 98.32694816 -25.03088824 97.25221408 -26.10198975 96.17811584 C-28.91655581 93.35210651 -31.72199579 90.51720358 -34.52563477 87.68035889 C-37.38924028 84.78604148 -40.26137861 81.90021924 -43.1328125 79.01367188 C-48.76359817 73.35073117 -54.38477183 67.67836727 -60 62 C-58.16307611 57.99625569 -55.50882084 55.28042066 -52.375 52.25 C-51.859375 51.74339844 -51.34375 51.23679688 -50.8125 50.71484375 C-49.54616661 49.47196098 -48.2736856 48.23534724 -47 47 C-40.58930713 52.27101414 -34.81409488 58.09128152 -29 64 C-21.16952737 60.72380226 -15.40882346 52.55617639 -10.00390625 46.2265625 C-5.5528649 41.280961 -0.73830936 36.66828509 4 32 C-1.27101414 25.58930713 -7.09128152 19.81409488 -13 14 C-8.88380164 9.08064098 -4.59589638 4.47352044 0 0 Z " fill="#1C4B5D" transform="translate(269,115)"/>
<path d="M0 0 C0.76430328 0.00149048 1.52860657 0.00298096 2.31607056 0.0045166 C14.3808279 0.04669501 25.98798786 0.77101969 37.8125 3.3125 C39.09125 3.55613281 40.37 3.79976562 41.6875 4.05078125 C88.05494361 14.07489047 128.98860937 45.16688857 154.8125 84.3125 C169.5599911 107.90042151 177.5940724 131.97610493 181.8125 159.3125 C182.01230469 160.50875 182.21210937 161.705 182.41796875 162.9375 C182.90030692 167.06364043 182.92121796 171.10104918 182.875 175.25 C182.87048828 176.02923828 182.86597656 176.80847656 182.86132812 177.61132812 C182.84966908 179.51175268 182.83173877 181.41213706 182.8125 183.3125 C180.8325 183.3125 178.8525 183.3125 176.8125 183.3125 C176.75304199 182.52939453 176.69358398 181.74628906 176.63232422 180.93945312 C175.22923274 163.23414409 173.02151345 146.37605514 167.8125 129.3125 C167.59255371 128.58498535 167.37260742 127.8574707 167.14599609 127.10791016 C159.49862776 102.68225101 145.1161657 79.98237869 127.26074219 61.79150391 C125.84816937 60.34892701 124.4588739 58.88367245 123.0703125 57.41796875 C107.71634697 41.50770012 88.88503352 29.91364456 68.69238281 21.13085938 C67.04437319 20.41344012 65.40784924 19.66975492 63.7734375 18.921875 C23.83716927 1.9139764 -24.80479024 3.18425391 -64.72387695 19.18286133 C-86.72830512 28.38959462 -105.75130155 41.02055208 -123.1875 57.3125 C-124.0125 58.08335937 -124.8375 58.85421875 -125.6875 59.6484375 C-136.890115 70.46596261 -145.31734868 82.96229366 -153.1875 96.3125 C-153.54585938 96.91255859 -153.90421875 97.51261719 -154.2734375 98.13085938 C-169.78423091 124.40007903 -174.7768313 153.25567612 -176.1875 183.3125 C-178.4975 183.3125 -180.8075 183.3125 -183.1875 183.3125 C-185.39334858 138.76661337 -166.90234816 95.27113065 -137.8125 62.1875 C-136.28473313 60.54942506 -134.74150478 58.92570496 -133.1875 57.3125 C-132.67993164 56.77915039 -132.17236328 56.24580078 -131.64941406 55.69628906 C-107.91838269 30.85697835 -77.93012318 13.13246716 -44.5 5 C-43.00557373 4.63624268 -43.00557373 4.63624268 -41.48095703 4.26513672 C-27.68261441 1.07951838 -14.10692043 -0.06843074 0 0 Z " fill="#235062" transform="translate(489.1875,186.6875)"/>
<path d="M0 0 C1.3550338 -0.00574036 1.3550338 -0.00574036 2.73744202 -0.01159668 C4.63934449 -0.01430678 6.54128481 -0.00700906 8.44311523 0.00976562 C11.33597949 0.03116363 14.22635348 0.0099466 17.11914062 -0.015625 C18.97526584 -0.01298108 20.83138952 -0.00785476 22.6875 0 C23.54294907 -0.00809692 24.39839813 -0.01619385 25.2797699 -0.02453613 C31.07803938 0.06487401 35.66322688 1.06597795 40.41015625 4.53125 C44.14218098 8.78840785 44.9149815 11.87451851 44.90625 17.46875 C44.90689453 18.77585937 44.90753906 20.08296875 44.90820312 21.4296875 C44.89261353 22.44047363 44.89261353 22.44047363 44.87670898 23.47167969 C44.84772731 25.52621244 44.85612096 27.57816247 44.86914062 29.6328125 C44.78351336 42.99066569 44.78351336 42.99066569 40.01672363 47.99375916 C35.0490616 52.12978544 30.36040774 52.24955527 24.09375 52.16015625 C23.11906265 52.16256821 22.14437531 52.16498016 21.14015198 52.16746521 C19.08859165 52.16648963 17.03700404 52.15316544 14.9855957 52.12817383 C11.85341685 52.09381319 8.72405431 52.10754389 5.59179688 52.12695312 C3.59243597 52.12005536 1.5930823 52.11038361 -0.40625 52.09765625 C-1.33764297 52.10261612 -2.26903595 52.10757599 -3.22865295 52.11268616 C-8.98690895 52.0088121 -12.158585 51.27674471 -16.58984375 47.53125 C-21.70455622 41.71105995 -20.84257502 35.1929903 -20.88500977 27.81713867 C-20.89652224 26.42348064 -20.91696304 25.02986646 -20.9465332 23.63647461 C-20.98940188 21.61542011 -21.00540354 19.59567256 -21.015625 17.57421875 C-21.03020752 16.36789795 -21.04479004 15.16157715 -21.05981445 13.91870117 C-20.47754879 9.72185125 -19.34505357 7.74235985 -16.58984375 4.53125 C-11.08090354 0.43657705 -6.74542714 -0.06369552 0 0 Z " fill="#096D3F" transform="translate(379.58984375,393.46875)"/>
<path d="M0 0 C0.76876465 -0.00191345 1.5375293 -0.0038269 2.32958984 -0.00579834 C3.94303722 -0.0071497 5.55649585 -0.00352719 7.16992188 0.00488281 C9.61874153 0.01559762 12.06682775 0.00495188 14.515625 -0.0078125 C16.0937516 -0.00649072 17.67187774 -0.00392794 19.25 0 C19.97106934 -0.00404846 20.69213867 -0.00809692 21.43505859 -0.01226807 C27.1071788 0.03923384 32.64002119 0.61028011 37.69238281 3.41210938 C43.0765376 9.03530698 42.53159411 16.19772115 42.40722656 23.50830078 C42.37505315 25.76190199 42.40697798 28.00833728 42.4453125 30.26171875 C42.48183117 42.21859495 42.48183117 42.21859495 38.890625 46.671875 C33.71954694 51.69056372 27.72915961 51.58470079 20.94140625 51.6015625 C20.0082811 51.6082193 19.07515594 51.6148761 18.11375427 51.62173462 C16.14445969 51.63183879 14.17513102 51.63655233 12.20581055 51.63623047 C9.20108442 51.64060522 6.19782603 51.67695268 3.19335938 51.71484375 C1.27604667 51.72071214 -0.64127299 51.72468139 -2.55859375 51.7265625 C-3.45251328 51.74093353 -4.3464328 51.75530457 -5.2674408 51.77011108 C-11.79205782 51.72255971 -15.20443397 49.99887158 -20.1875 45.703125 C-24.01131275 41.07429905 -22.71769864 33.46874463 -22.7800293 27.75195312 C-22.80157589 26.26799195 -22.83564059 24.78415673 -22.88256836 23.30078125 C-23.3174141 9.41047758 -23.3174141 9.41047758 -19.84765625 4.875 C-14.97535648 -0.20631981 -6.57579377 -0.03691996 0 0 Z " fill="#056B3C" transform="translate(728.375,393.734375)"/>
<path d="M0 0 C8.270625 -0.0825 16.54125 -0.165 25.0625 -0.25 C28.96074585 -0.30462402 28.96074585 -0.30462402 32.93774414 -0.36035156 C35.01187312 -0.3720408 37.08601131 -0.38223207 39.16015625 -0.390625 C40.75821106 -0.4213208 40.75821106 -0.4213208 42.3885498 -0.45263672 C48.84076642 -0.45565142 52.74544364 0.16747621 58 4 C63.6430287 10.33755531 63.20286574 18.96591767 63.25 26.9375 C63.270625 27.80568359 63.29125 28.67386719 63.3125 29.56835938 C63.36015823 37.44983995 61.54818115 43.11556545 56 49 C52.85104761 50.96138984 50.45252949 51.24491519 46.77246094 51.22705078 C45.73168396 51.22689972 44.69090698 51.22674866 43.61859131 51.22659302 C41.94340424 51.21110916 41.94340424 51.21110916 40.234375 51.1953125 C39.08584045 51.1924826 37.93730591 51.18965271 36.75396729 51.18673706 C33.08587219 51.17554263 29.4180213 51.15043904 25.75 51.125 C23.26302436 51.11496926 20.77604489 51.10584358 18.2890625 51.09765625 C12.19253856 51.07730737 6.09654264 51.03815639 0 51 C0 34.17 0 17.34 0 0 Z " fill="#066B3D" transform="translate(227,394)"/>
<path d="M0 0 C4.50727647 0.60266785 7.8587963 2.36599794 11.8125 4.5625 C12.7087207 5.0565332 12.7087207 5.0565332 13.62304688 5.56054688 C15.08533998 6.36773267 16.5431399 7.18304917 18 8 C16.08095497 14.45305252 13.04083922 20.33145265 10.1015625 26.36328125 C9.70453125 27.18699219 9.3075 28.01070312 8.8984375 28.859375 C8.53411621 29.60670898 8.16979492 30.35404297 7.79443359 31.12402344 C6.87001576 32.96740226 6.87001576 32.96740226 7 35 C21.90989034 42.52644752 36.90751441 49.84685603 52 57 C51.43768657 60.29140797 50.67362568 63.01815939 49.15234375 65.98828125 C48.61577148 67.04692383 48.61577148 67.04692383 48.06835938 68.12695312 C47.69517578 68.84818359 47.32199219 69.56941406 46.9375 70.3125 C46.56044922 71.05306641 46.18339844 71.79363281 45.79492188 72.55664062 C44.86871843 74.37387522 43.93509371 76.18732404 43 78 C40.31219829 76.72980199 37.62475778 75.45884799 34.9375 74.1875 C34.10001221 73.79167725 33.26252441 73.39585449 32.3996582 72.98803711 C27.53347124 70.684878 22.67588648 68.36515279 17.828125 66.0234375 C16.805979 65.53077393 15.78383301 65.03811035 14.73071289 64.53051758 C12.73367802 63.56716654 10.73802174 62.60095135 8.74389648 61.6315918 C4.2265536 59.45520095 -0.17233235 57.41514546 -5 56 C-5.2371875 56.78761719 -5.474375 57.57523437 -5.71875 58.38671875 C-7.35831585 63.0104944 -9.40064397 67.38238928 -11.5 71.8125 C-11.90347656 72.68326172 -12.30695313 73.55402344 -12.72265625 74.45117188 C-13.11324219 75.27810547 -13.50382812 76.10503906 -13.90625 76.95703125 C-14.26009766 77.70960205 -14.61394531 78.46217285 -14.97851562 79.23754883 C-16 81 -16 81 -18 82 C-19.78759766 81.37915039 -19.78759766 81.37915039 -21.9140625 80.34765625 C-22.67460937 79.98349609 -23.43515625 79.61933594 -24.21875 79.24414062 C-25.40984375 78.65922852 -25.40984375 78.65922852 -26.625 78.0625 C-27.42679688 77.67642578 -28.22859375 77.29035156 -29.0546875 76.89257812 C-31.03997846 75.93538427 -33.02141737 74.97096525 -35 74 C-33.28473363 67.98134344 -30.39389648 62.61187699 -27.5625 57.0625 C-22.00820359 46.06714035 -16.63985721 34.9944625 -11.35986328 23.86523438 C-9.46980439 19.88287689 -7.57273788 15.90386866 -5.67626953 11.92456055 C-3.78261069 7.95045339 -1.89109165 3.97532927 0 0 Z " fill="#1D4B5D" transform="translate(192,200)"/>
<path d="M0 0 C1.40106239 -0.0049926 1.40106239 -0.0049926 2.83042908 -0.01008606 C4.81525173 -0.01516244 6.80008297 -0.01749417 8.78491211 -0.01733398 C11.80271845 -0.01950455 14.82014983 -0.03760827 17.83789062 -0.05664062 C19.76692584 -0.0595777 21.69596278 -0.06156039 23.625 -0.0625 C24.96921776 -0.07327827 24.96921776 -0.07327827 26.34059143 -0.08427429 C32.44697178 -0.06235393 38.41469799 0.29843809 43.87109375 3.33203125 C47.86244111 7.47859767 48.33606966 11.63158261 48.40234375 17.23046875 C48.41330078 17.91512207 48.42425781 18.59977539 48.43554688 19.30517578 C48.28944034 24.52344608 46.88842027 27.19545869 43.77734375 31.16796875 C44.25171875 31.60109375 44.72609375 32.03421875 45.21484375 32.48046875 C49.5498673 37.16229418 47.83097591 45.32206364 47.77734375 51.16796875 C43.15734375 51.16796875 38.53734375 51.16796875 33.77734375 51.16796875 C33.58203125 48.921875 33.38671875 46.67578125 33.19140625 44.4296875 C32.88169949 41.89572434 32.88169949 41.89572434 30.77734375 39.16796875 C27.96924231 38.65691953 27.96924231 38.65691953 24.67578125 38.65625 C23.4640625 38.62080078 22.25234375 38.58535156 21.00390625 38.54882812 C19.73289062 38.52626953 18.461875 38.50371094 17.15234375 38.48046875 C15.87359375 38.44630859 14.59484375 38.41214844 13.27734375 38.37695312 C10.11099085 38.29424988 6.94417999 38.22944014 3.77734375 38.16796875 C3.77734375 42.45796875 3.77734375 46.74796875 3.77734375 51.16796875 C-0.84265625 51.16796875 -5.46265625 51.16796875 -10.22265625 51.16796875 C-10.24729781 44.06551367 -10.26548825 36.96308324 -10.27758789 29.8605957 C-10.28262974 27.44229703 -10.28946303 25.02400142 -10.2980957 22.60571289 C-10.31016782 19.13817592 -10.31588588 15.67067909 -10.3203125 12.203125 C-10.32547379 11.11459732 -10.33063507 10.02606964 -10.33595276 8.90455627 C-10.33602829 7.90359421 -10.33610382 6.90263214 -10.33618164 5.87133789 C-10.33840225 4.98531387 -10.34062286 4.09928986 -10.34291077 3.18641663 C-10.04165356 -1.87012496 -3.8491929 0.00470548 0 0 Z " fill="#076C3E" transform="translate(786.22265625,393.83203125)"/>
<path d="M0 0 C1.40106239 -0.0049926 1.40106239 -0.0049926 2.83042908 -0.01008606 C4.81525173 -0.01516244 6.80008297 -0.01749417 8.78491211 -0.01733398 C11.80271845 -0.01950455 14.82014983 -0.03760827 17.83789062 -0.05664062 C19.76692584 -0.0595777 21.69596278 -0.06156039 23.625 -0.0625 C24.96921776 -0.07327827 24.96921776 -0.07327827 26.34059143 -0.08427429 C32.43592405 -0.06239359 38.45639457 0.26585793 43.87109375 3.3671875 C48.70223059 8.48014065 48.38253223 13.98691278 48.28125 20.64453125 C47.76087312 24.28313545 46.76646364 26.14450652 44.77734375 29.16796875 C44.49982558 32.19895775 44.49982558 32.19895775 46.265625 34.3984375 C49.08125696 39.55679166 47.93828576 45.42770386 47.77734375 51.16796875 C43.15734375 51.16796875 38.53734375 51.16796875 33.77734375 51.16796875 C33.58203125 48.921875 33.38671875 46.67578125 33.19140625 44.4296875 C32.88169949 41.89572434 32.88169949 41.89572434 30.77734375 39.16796875 C27.96924231 38.65691953 27.96924231 38.65691953 24.67578125 38.65625 C23.4640625 38.62080078 22.25234375 38.58535156 21.00390625 38.54882812 C19.73289062 38.52626953 18.461875 38.50371094 17.15234375 38.48046875 C15.87359375 38.44630859 14.59484375 38.41214844 13.27734375 38.37695312 C10.11099085 38.29424988 6.94417999 38.22944014 3.77734375 38.16796875 C3.77734375 42.45796875 3.77734375 46.74796875 3.77734375 51.16796875 C-0.84265625 51.16796875 -5.46265625 51.16796875 -10.22265625 51.16796875 C-10.24729781 44.06551367 -10.26548825 36.96308324 -10.27758789 29.8605957 C-10.28262974 27.44229703 -10.28946303 25.02400142 -10.2980957 22.60571289 C-10.31016782 19.13817592 -10.31588588 15.67067909 -10.3203125 12.203125 C-10.32547379 11.11459732 -10.33063507 10.02606964 -10.33595276 8.90455627 C-10.33602829 7.90359421 -10.33610382 6.90263214 -10.33618164 5.87133789 C-10.33840225 4.98531387 -10.34062286 4.09928986 -10.34291077 3.18641663 C-10.04165356 -1.87012496 -3.8491929 0.00470548 0 0 Z " fill="#066C3D" transform="translate(532.22265625,393.83203125)"/>
<path d="M0 0 C7.425 -0.0825 14.85 -0.165 22.5 -0.25 C25.99303711 -0.30462402 25.99303711 -0.30462402 29.55664062 -0.36035156 C31.42316773 -0.37204501 33.28970512 -0.38223528 35.15625 -0.390625 C36.58469238 -0.4213208 36.58469238 -0.4213208 38.04199219 -0.45263672 C45.16953035 -0.45632974 50.50048221 0.99942336 55.97265625 5.69140625 C57.61117644 9.37340409 57.47269403 12.95417517 57.4375 16.9375 C57.4674707 18.13536133 57.4674707 18.13536133 57.49804688 19.35742188 C57.49459714 23.52125427 57.32950644 25.50161358 54.97265625 29.06640625 C54.32167969 29.70449219 53.67070312 30.34257812 53 31 C53.65484375 31.66386719 54.3096875 32.32773437 54.984375 33.01171875 C57.47243529 36.70041279 57.46285166 39.53500029 57.25 43.8125 C57.23195313 44.50537109 57.21390625 45.19824219 57.1953125 45.91210938 C57.14851064 47.60867664 57.07677624 49.30452476 57 51 C52.38 51 47.76 51 43 51 C42.77213542 48.49348958 42.54427083 45.98697917 42.31640625 43.48046875 C42.06510233 40.87256441 42.06510233 40.87256441 41 38 C32.09 38 23.18 38 14 38 C14 42.29 14 46.58 14 51 C9.38 51 4.76 51 0 51 C0 34.17 0 17.34 0 0 Z " fill="#056B3C" transform="translate(297,394)"/>
<path d="M0 0 C0.87503677 -0.01283524 1.75007355 -0.02567047 2.65162659 -0.03889465 C3.60568893 -0.04628159 4.55975128 -0.05366852 5.54272461 -0.0612793 C6.52115829 -0.06935104 7.49959198 -0.07742279 8.50767517 -0.08573914 C10.58664161 -0.09960367 12.66563105 -0.11031516 14.74462891 -0.11816406 C17.90759426 -0.13529508 21.06949225 -0.17915012 24.23217773 -0.22338867 C26.25235234 -0.23352247 28.27253584 -0.24203642 30.29272461 -0.2487793 C31.70256371 -0.27504143 31.70256371 -0.27504143 33.1408844 -0.30183411 C39.10838864 -0.28237329 43.99595961 0.54279028 48.88256836 4.17700195 C52.22016164 9.51054211 52.37283946 14.63244677 52.32006836 20.73950195 C52.35003906 21.97603516 52.35003906 21.97603516 52.38061523 23.23754883 C52.3762615 28.68406743 51.60933802 31.94058858 47.88256836 36.17700195 C43.70378379 39.37617605 40.04286733 39.5796683 34.95678711 39.4699707 C34.20919632 39.46572586 33.46160553 39.46148102 32.69136047 39.45710754 C30.31722104 39.44039251 27.94394869 39.40275542 25.57006836 39.36450195 C23.95484629 39.34944576 22.33961085 39.33575899 20.72436523 39.32348633 C16.77676848 39.29051275 12.82981514 39.23878164 8.88256836 39.17700195 C8.88256836 43.13700195 8.88256836 47.09700195 8.88256836 51.17700195 C6.73680199 51.20386134 4.59094191 51.22333283 2.44506836 51.23950195 C1.25010742 51.25110352 0.05514648 51.26270508 -1.17602539 51.2746582 C-4.11743164 51.17700195 -4.11743164 51.17700195 -5.11743164 50.17700195 C-5.21582378 48.64765565 -5.24541703 47.1138063 -5.24682617 45.58129883 C-5.24997833 44.60358521 -5.25313049 43.62587158 -5.25637817 42.61853027 C-5.25435394 41.55501343 -5.25232971 40.49149658 -5.25024414 39.39575195 C-5.25120087 38.31193237 -5.25215759 37.22811279 -5.25314331 36.1114502 C-5.25382529 33.81477806 -5.25196975 31.51810401 -5.24780273 29.22143555 C-5.24245476 25.69225768 -5.24774714 22.16320708 -5.25415039 18.6340332 C-5.25348961 16.4087725 -5.25220846 14.18351188 -5.25024414 11.95825195 C-5.25226837 10.89473511 -5.2542926 9.83121826 -5.25637817 8.73547363 C-5.25322601 7.75776001 -5.25007385 6.78004639 -5.24682617 5.77270508 C-5.24603058 4.90746216 -5.24523499 4.04221924 -5.24441528 3.15075684 C-5.01043567 -0.48607691 -3.19316226 0.04066146 0 0 Z " fill="#076C3D" transform="translate(434.117431640625,393.822998046875)"/>
<path d="M0 0 C6.37765475 1.87734722 12.70407756 3.86488356 19 6 C17.10120641 12.53971621 15.01189948 18.96995757 12.6796875 25.3671875 C12.37555939 26.20919708 12.07143127 27.05120667 11.75808716 27.91873169 C10.79960635 30.57175161 9.83764729 33.22348933 8.875 35.875 C7.90548482 38.54802992 6.93679196 41.22134523 5.9704895 43.89553833 C5.37255328 45.55010948 4.77276195 47.20401172 4.17086792 48.85714722 C3.900336 49.6053775 3.62980408 50.35360779 3.35107422 51.12451172 C3.11363495 51.77829803 2.87619568 52.43208435 2.63156128 53.10568237 C1.98250007 55.05248964 1.47198131 57.0035506 1 59 C2.25554688 59.35707031 3.51109375 59.71414062 4.8046875 60.08203125 C13.34563888 62.64431666 21.72122254 65.71303037 30.125 68.6875 C31.86190384 69.30034373 33.59888241 69.91297574 35.3359375 70.52539062 C39.55815756 72.01448612 43.77935449 73.50644779 48 75 C47.53708858 76.41599775 47.07176866 77.83120824 46.60546875 79.24609375 C46.34660889 80.0342749 46.08774902 80.82245605 45.82104492 81.63452148 C44.70904287 84.83826452 43.38307346 87.90454987 42 91 C35.47088152 89.70464383 29.54872887 87.83700031 23.375 85.375 C15.63620551 82.35394722 7.85750175 79.5097839 0 76.8125 C-8.07066922 74.03890271 -16.07272104 71.16482538 -24 68 C-21.90522041 60.7022841 -19.47762938 53.56829518 -16.875 46.4375 C-16.07802627 44.23961913 -15.28115438 42.04170133 -14.484375 39.84375 C-14.07638672 38.72097656 -13.66839844 37.59820312 -13.24804688 36.44140625 C-10.81826455 29.74144309 -8.41526575 23.03181173 -6.00732422 16.32397461 C-4.0446996 10.86697581 -2.05107908 5.42439468 0 0 Z " fill="#1D4B5D" transform="translate(547,56)"/>
<path d="M0 0 C5.31185725 0.24778343 9.01780632 1.23533993 12.70849609 5.12890625 C18.91349094 12.53712788 23.80820696 21.04441491 28.51269531 29.45703125 C30.77447889 33.44249817 33.21432861 37.32495702 35.64306641 41.2109375 C35.97306641 28.3409375 36.30306641 15.4709375 36.64306641 2.2109375 C40.93306641 2.2109375 45.22306641 2.2109375 49.64306641 2.2109375 C51.2571589 3.82503 50.77040958 5.57570158 50.77246094 7.80664062 C50.7756131 8.78435425 50.77876526 9.76206787 50.78201294 10.76940918 C50.77897659 12.36468445 50.77897659 12.36468445 50.77587891 13.9921875 C50.77683563 15.07600708 50.77779236 16.15982666 50.77877808 17.27648926 C50.77946006 19.5731614 50.77760452 21.86983545 50.7734375 24.16650391 C50.76808952 27.69568178 50.77338191 31.22473237 50.77978516 34.75390625 C50.77912438 36.97916695 50.77784322 39.20442757 50.77587891 41.4296875 C50.77790314 42.49320435 50.77992737 43.55672119 50.78201294 44.65246582 C50.7772847 46.11903625 50.7772847 46.11903625 50.77246094 47.61523438 C50.77166534 48.48047729 50.77086975 49.34572021 50.77005005 50.23718262 C50.64306641 52.2109375 50.64306641 52.2109375 49.64306641 53.2109375 C45.97009949 53.71531327 42.28233149 53.81585914 38.58056641 53.9609375 C37.55511719 54.04859375 36.52966797 54.13625 35.47314453 54.2265625 C30.94181391 54.36572045 27.89114235 54.34901964 24.44628906 51.20776367 C22.30921526 48.30417138 20.47736699 45.31450551 18.64306641 42.2109375 C17.48852749 40.45763129 16.30747316 38.72425723 15.12400818 36.9903717 C13.10017638 34.02148616 11.1265007 31.01941868 9.14306641 28.0234375 C6.33806641 23.7953125 3.53306641 19.5671875 0.64306641 15.2109375 C0.31306641 27.7509375 -0.01693359 40.2909375 -0.35693359 53.2109375 C-4.64693359 53.2109375 -8.93693359 53.2109375 -13.35693359 53.2109375 C-14.97102609 51.596845 -14.48427677 49.84617342 -14.48632812 47.61523438 C-14.48948029 46.63752075 -14.49263245 45.65980713 -14.49588013 44.65246582 C-14.4938559 43.58894897 -14.49183167 42.52543213 -14.48974609 41.4296875 C-14.49070282 40.34586792 -14.49165955 39.26204834 -14.49264526 38.14538574 C-14.49332725 35.8487136 -14.49147171 33.55203955 -14.48730469 31.25537109 C-14.48195671 27.72619322 -14.4872491 24.19714263 -14.49365234 20.66796875 C-14.49299157 18.44270805 -14.49171041 16.21744743 -14.48974609 13.9921875 C-14.49177032 12.92867065 -14.49379456 11.86515381 -14.49588013 10.76940918 C-14.49272797 9.79169556 -14.48957581 8.81398193 -14.48632812 7.80664062 C-14.48553253 6.94139771 -14.48473694 6.07615479 -14.48391724 5.18469238 C-14.1275201 -0.35492345 -4.2063315 0.28557838 0 0 Z " fill="#086D3E" transform="translate(170.35693359375,391.7890625)"/>
<path d="M0 0 C0.72957413 -0.0004985 1.45914825 -0.00099701 2.21083069 -0.00151062 C3.74629453 0.00081865 5.28176302 0.01047915 6.81713867 0.02709961 C9.14992949 0.05067788 11.48157337 0.0476536 13.81445312 0.04101562 C15.31380881 0.0465942 16.81315973 0.05370522 18.3125 0.0625 C19.00125717 0.06158859 19.69001434 0.06067719 20.39964294 0.05973816 C26.05898579 0.14137263 31.24744412 0.69194791 35.66015625 4.42578125 C37.88125914 8.60145469 37.50289511 11.66928029 37.22265625 16.36328125 C32.60265625 16.36328125 27.98265625 16.36328125 23.22265625 16.36328125 C22.56265625 15.04328125 21.90265625 13.72328125 21.22265625 12.36328125 C17.41017199 12.33440889 13.59771555 12.31652633 9.78515625 12.30078125 C8.69654297 12.29240234 7.60792969 12.28402344 6.48632812 12.27539062 C4.93461914 12.27055664 4.93461914 12.27055664 3.3515625 12.265625 C2.3932251 12.26038818 1.4348877 12.25515137 0.44750977 12.24975586 C-1.75019714 12.11274995 -1.75019714 12.11274995 -2.77734375 13.36328125 C-2.81798207 15.0294524 -2.82006475 16.6971622 -2.77734375 18.36328125 C-1.91568604 18.37262695 -1.05402832 18.38197266 -0.16625977 18.39160156 C3.07152206 18.43596367 6.30840273 18.49773193 9.5456543 18.57080078 C10.93908843 18.59879496 12.332675 18.62011531 13.72631836 18.63427734 C29.52628878 18.80435238 29.52628878 18.80435238 36.22265625 23.36328125 C39.96522815 28.12655458 39.91342693 33.542387 39.22265625 39.36328125 C38.16045104 43.23635603 36.62367738 47.05544548 33.22265625 49.36328125 C28.21479243 51.05531794 23.59861939 51.68217317 18.34765625 51.69921875 C17.61949707 51.70587555 16.89133789 51.71253235 16.14111328 51.71939087 C14.6116791 51.72945186 13.08220161 51.73420994 11.55273438 51.73388672 C9.22842666 51.73827037 6.90600536 51.77468385 4.58203125 51.8125 C3.087246 51.81836779 1.59245184 51.82233744 0.09765625 51.82421875 C-0.93077393 51.8457753 -0.93077393 51.8457753 -1.97998047 51.86776733 C-8.10752705 51.8104295 -12.19791145 49.69309107 -16.71484375 45.61328125 C-18.36484174 42.11916786 -18.0291934 39.20398844 -17.77734375 35.36328125 C-16.77734375 34.36328125 -16.77734375 34.36328125 -13.8359375 34.265625 C-12.64097656 34.27722656 -11.44601563 34.28882813 -10.21484375 34.30078125 C-8.41853516 34.31431641 -8.41853516 34.31431641 -6.5859375 34.328125 C-5.65910156 34.33972656 -4.73226562 34.35132813 -3.77734375 34.36328125 C-3.11734375 36.01328125 -2.45734375 37.66328125 -1.77734375 39.36328125 C2.1809286 39.42113772 6.13909295 39.45682842 10.09765625 39.48828125 C11.78955078 39.51341797 11.78955078 39.51341797 13.515625 39.5390625 C15.13017578 39.54873047 15.13017578 39.54873047 16.77734375 39.55859375 C18.26983643 39.5743042 18.26983643 39.5743042 19.79248047 39.59033203 C22.40437042 39.60707526 22.40437042 39.60707526 24.22265625 37.36328125 C23.81736724 34.5809047 23.81736724 34.5809047 22.22265625 32.36328125 C20.00194974 32.25329655 17.77802747 32.20733469 15.5546875 32.1875 C14.1725111 32.1642845 12.79034962 32.14016648 11.40820312 32.11523438 C9.22703331 32.08023973 7.04640545 32.05085085 4.86499023 32.03735352 C2.76088215 32.02178173 0.65836903 31.98150039 -1.4453125 31.9375 C-3.33672974 31.91562622 -3.33672974 31.91562622 -5.26635742 31.89331055 C-10.35029377 31.12582388 -13.5374262 28.97517406 -16.65234375 24.92578125 C-18.36209412 19.51157175 -18.66956903 13.9765726 -17.77734375 8.36328125 C-13.57793799 1.46354837 -7.70555267 -0.10273321 0 0 Z " fill="#096D3F" transform="translate(44.77734375,393.63671875)"/>
<path d="M0 0 C0.80136383 -0.0066568 1.60272766 -0.0133136 2.42837524 -0.02017212 C4.12117219 -0.03028126 5.81400884 -0.03498968 7.50683594 -0.03466797 C10.08596062 -0.03903608 12.66336597 -0.0753574 15.2421875 -0.11328125 C16.89061918 -0.11915098 18.53905894 -0.12311933 20.1875 -0.125 C21.33622086 -0.14655655 21.33622086 -0.14655655 22.50814819 -0.16854858 C28.69708017 -0.11619513 32.30307928 1.91245428 36.7265625 6.3359375 C36.921875 8.71875 36.921875 8.71875 36.8515625 11.4609375 C36.83351563 12.37101562 36.81546875 13.28109375 36.796875 14.21875 C36.77367187 14.91742188 36.75046875 15.61609375 36.7265625 16.3359375 C34.62351773 16.4439398 32.51889341 16.52152737 30.4140625 16.5859375 C28.65642578 16.65554688 28.65642578 16.65554688 26.86328125 16.7265625 C25.31060547 16.53320312 25.31060547 16.53320312 23.7265625 16.3359375 C23.27667969 15.6759375 22.82679688 15.0159375 22.36328125 14.3359375 C20.88687684 12.09274664 20.88687684 12.09274664 18.2746582 11.88183594 C17.32679443 11.9027832 16.37893066 11.92373047 15.40234375 11.9453125 C13.86030273 11.96464844 13.86030273 11.96464844 12.28710938 11.984375 C11.21525391 12.01789063 10.14339844 12.05140625 9.0390625 12.0859375 C7.41387695 12.11300781 7.41387695 12.11300781 5.75585938 12.140625 C3.07854104 12.18780242 0.40299341 12.25361501 -2.2734375 12.3359375 C-2.6034375 14.6459375 -2.9334375 16.9559375 -3.2734375 19.3359375 C-2.46189209 19.33070068 -1.65034668 19.32546387 -0.81420898 19.32006836 C2.88687354 19.29919412 6.58794363 19.28624414 10.2890625 19.2734375 C11.56587891 19.26505859 12.84269531 19.25667969 14.15820312 19.24804688 C16.01928711 19.24321289 16.01928711 19.24321289 17.91796875 19.23828125 C19.62255249 19.23042603 19.62255249 19.23042603 21.36157227 19.22241211 C27.71286655 19.43668707 32.10127753 19.71065253 36.7265625 24.3359375 C39.81068214 29.2209242 39.21851794 34.76789635 38.7265625 40.3359375 C37.37611533 44.00143696 35.89652665 46.98781591 32.7265625 49.3359375 C28.03915926 51.23760114 23.73158053 51.65625635 18.73046875 51.671875 C17.60281349 51.6818602 17.60281349 51.6818602 16.45237732 51.69204712 C14.86988759 51.70212556 13.28735577 51.70686564 11.70483398 51.70654297 C9.29924855 51.71091897 6.89549627 51.7472936 4.49023438 51.78515625 C2.94531871 51.79102516 1.40039442 51.79499406 -0.14453125 51.796875 C-0.8551622 51.81124603 -1.56579315 51.82561707 -2.29795837 51.84042358 C-7.80907688 51.79061487 -10.85168616 50.39829556 -15.2734375 47.3359375 C-18.19676019 42.95095346 -17.4090877 39.5584703 -17.2734375 34.3359375 C-12.9834375 34.3359375 -8.6934375 34.3359375 -4.2734375 34.3359375 C-3.6134375 35.9859375 -2.9534375 37.6359375 -2.2734375 39.3359375 C1.68488059 39.36486607 5.64317167 39.38271177 9.6015625 39.3984375 C10.72949219 39.40681641 11.85742188 39.41519531 13.01953125 39.42382812 C14.63408203 39.42866211 14.63408203 39.42866211 16.28125 39.43359375 C17.77374268 39.44144897 17.77374268 39.44144897 19.29638672 39.44946289 C21.73617023 39.499879 21.73617023 39.499879 23.7265625 38.3359375 C23.34752042 35.04517754 23.34752042 35.04517754 21.7265625 32.3359375 C19.57914572 32.2137683 17.42800762 32.15612972 15.27734375 32.125 C13.94074344 32.09690855 12.60415508 32.06824396 11.26757812 32.0390625 C9.1589419 31.99796134 7.05052319 31.96108158 4.94165039 31.93457031 C2.90724287 31.90677066 0.87385263 31.86087852 -1.16015625 31.8125 C-2.37920654 31.79268066 -3.59825684 31.77286133 -4.85424805 31.75244141 C-9.57198398 31.17775683 -13.02731382 29.81438932 -16.1171875 26.1484375 C-17.60718923 22.52410897 -17.78767651 19.19470869 -17.7734375 15.3359375 C-17.80179688 14.63726562 -17.83015625 13.93859375 -17.859375 13.21875 C-17.8740811 9.32163274 -17.43489933 7.53942364 -14.9921875 4.4609375 C-9.98938194 0.55069867 -6.30241975 0.01822009 0 0 Z " fill="#086D3E" transform="translate(661.2734375,393.6640625)"/>
<path d="M0 0 C12.5915625 -0.0309375 12.5915625 -0.0309375 25.4375 -0.0625 C28.09095459 -0.071604 30.74440918 -0.08070801 33.47827148 -0.09008789 C35.56754506 -0.09300686 37.65681919 -0.09555546 39.74609375 -0.09765625 C40.84215942 -0.10277222 41.9382251 -0.10788818 43.06750488 -0.11315918 C44.10282349 -0.11328003 45.13814209 -0.11340088 46.20483398 -0.11352539 C47.10862289 -0.115746 48.0124118 -0.11796661 48.94358826 -0.12025452 C51 0 51 0 52 1 C52 4.63 52 8.26 52 12 C39.46 12 26.92 12 14 12 C14 14.64 14 17.28 14 20 C25.55 20 37.1 20 49 20 C49 23.63 49 27.26 49 31 C37.45 31 25.9 31 14 31 C14 33.64 14 36.28 14 39 C26.54 39 39.08 39 52 39 C52 42.63 52 46.26 52 50 C51 51 51 51 48.94358826 51.12025452 C48.03979935 51.11803391 47.13601044 51.11581329 46.20483398 51.11352539 C45.16951538 51.11340454 44.13419678 51.11328369 43.06750488 51.11315918 C41.42340637 51.10548523 41.42340637 51.10548523 39.74609375 51.09765625 C38.74453247 51.09664917 37.74297119 51.09564209 36.71105957 51.09460449 C32.95319481 51.08935429 29.19534631 51.07539317 25.4375 51.0625 C17.043125 51.041875 8.64875 51.02125 0 51 C0 34.17 0 17.34 0 0 Z " fill="#076C3E" transform="translate(586,394)"/>
<path d="M0 0 C1.79244141 0.01740234 1.79244141 0.01740234 3.62109375 0.03515625 C5.41740234 0.04869141 5.41740234 0.04869141 7.25 0.0625 C8.17683594 0.07410156 9.10367188 0.08570313 10.05859375 0.09765625 C10.0726123 1.61117676 10.0726123 1.61117676 10.08691406 3.15527344 C10.12684145 6.90539401 10.19260656 10.65469654 10.26611328 14.40429688 C10.29430722 16.02593462 10.31552969 17.64770938 10.32958984 19.26953125 C10.35104247 21.6035773 10.3976995 23.93597886 10.44921875 26.26953125 C10.45044739 26.9925946 10.45167603 27.71565796 10.45294189 28.46063232 C10.54930431 31.78567716 10.84963515 33.79718119 12.76660156 36.55371094 C15.51411253 38.4045055 17.04574141 38.61270195 20.33984375 38.62890625 C21.34660156 38.6340625 22.35335937 38.63921875 23.390625 38.64453125 C24.43605469 38.6290625 25.48148438 38.61359375 26.55859375 38.59765625 C28.12673828 38.62085938 28.12673828 38.62085938 29.7265625 38.64453125 C30.73332031 38.639375 31.74007812 38.63421875 32.77734375 38.62890625 C33.69451172 38.62439453 34.61167969 38.61988281 35.55664062 38.61523438 C38.96458183 37.91023483 40.07187809 36.95448295 42.05859375 34.09765625 C42.4765237 31.36055148 42.66331586 29.0077952 42.66796875 26.26953125 C42.684505 25.52052551 42.70104126 24.77151978 42.71807861 23.99981689 C42.76652885 21.61567971 42.78792147 19.23218014 42.80859375 16.84765625 C42.83675615 15.22783256 42.86668397 13.60803853 42.8984375 11.98828125 C42.97228619 8.02479211 43.02187832 4.06165627 43.05859375 0.09765625 C47.67859375 0.09765625 52.29859375 0.09765625 57.05859375 0.09765625 C57.15771064 5.96918856 57.23017986 11.84023038 57.27832031 17.71240234 C57.29839544 19.70858243 57.32566164 21.704704 57.36035156 23.70068359 C57.40905032 26.57534245 57.43160361 29.44922165 57.44921875 32.32421875 C57.46986389 33.21194977 57.49050903 34.09968079 57.51177979 35.01431274 C57.51375131 40.49851469 56.97072184 43.92033939 53.05859375 48.09765625 C47.67399578 51.23080677 42.92383769 51.55300233 36.87109375 51.53125 C36.0097583 51.53649185 35.14842285 51.5417337 34.26098633 51.5471344 C32.4490669 51.55352668 30.63710583 51.55225401 28.82519531 51.54370117 C26.06630096 51.53518005 23.30947217 51.56400815 20.55078125 51.59570312 C18.7825527 51.59731523 17.01432051 51.59673743 15.24609375 51.59375 C14.42923096 51.60498398 13.61236816 51.61621796 12.77075195 51.62779236 C7.0743307 51.55908035 3.65041926 50.55484859 -0.94140625 47.09765625 C-4.45003112 42.21319643 -4.35443319 37.57889795 -4.26953125 31.796875 C-4.26765808 30.91989456 -4.26578491 30.04291412 -4.26385498 29.13935852 C-4.25716022 27.29623582 -4.24329729 25.4531267 -4.22265625 23.61010742 C-4.19131656 20.77704799 -4.18166387 17.94454426 -4.17578125 15.11132812 C-4.16661811 13.31900357 -4.15624454 11.5266847 -4.14453125 9.734375 C-4.14028137 8.88340744 -4.13603149 8.03243988 -4.13165283 7.15568542 C-4.04532163 0.13430683 -4.04532163 0.13430683 0 0 Z " fill="#056B3C" transform="translate(92.94140625,393.90234375)"/>
<path d="M0 0 C3.49973523 0.60151699 5.19237596 1.60726402 8 3.765625 C8.94488281 4.49136719 9.88976562 5.21710938 10.86328125 5.96484375 C16.70321726 10.66482425 22.36127143 15.57779495 28 20.515625 C28.86882813 21.27101562 29.73765625 22.02640625 30.6328125 22.8046875 C36.97201153 28.32592536 36.97201153 28.32592536 37.38671875 31.13671875 C36.85584503 35.77516084 34.76061128 38.08504835 31.8125 41.578125 C31.32974609 42.17689453 30.84699219 42.77566406 30.34960938 43.39257812 C28.93168238 45.13025242 27.46952421 46.8215831 26 48.515625 C25.22011719 49.48371094 24.44023438 50.45179688 23.63671875 51.44921875 C20.69870081 53.75175429 18.74868681 54.23763707 15.01660156 53.98242188 C11.49755322 53.16784313 9.02434766 51.08448864 6.375 48.765625 C5.7867041 48.27698975 5.1984082 47.78835449 4.59228516 47.28491211 C2.71144196 45.71388711 0.85587325 44.11602809 -1 42.515625 C-2.29054434 41.42705346 -3.58221043 40.33981039 -4.875 39.25390625 C-8.28207147 36.37550322 -11.66457204 33.47702739 -15 30.515625 C-15.79148437 29.88527344 -16.58296875 29.25492188 -17.3984375 28.60546875 C-19 26.515625 -19 26.515625 -19.57421875 23.2109375 C-18.82850371 18.41198222 -16.90982303 16.00880723 -13.8125 12.390625 C-13.32974609 11.79636719 -12.84699219 11.20210937 -12.34960938 10.58984375 C-10.93271522 8.8667483 -9.47457937 7.18941706 -8 5.515625 C-7.17886719 4.54882812 -6.35773437 3.58203125 -5.51171875 2.5859375 C-3 0.515625 -3 0.515625 0 0 Z " fill="#FCFDFD" transform="translate(642,119.484375)"/>
<path d="M0 0 C18.81 0 37.62 0 57 0 C57 4.62 57 9.24 57 14 C50.07 14 43.14 14 36 14 C36 26.21 36 38.42 36 51 C31.05 51 26.1 51 21 51 C21 38.79 21 26.58 21 14 C14.07 14 7.14 14 0 14 C0 9.38 0 4.76 0 0 Z " fill="#056B3C" transform="translate(839,394)"/>
<path d="M0 0 C62.04 0 124.08 0 188 0 C188 2.31 188 4.62 188 7 C125.96 7 63.92 7 0 7 C0 4.69 0 2.38 0 0 Z " fill="#2A5566" transform="translate(708,525)"/>
<path d="M0 0 C0.72469449 0.00291284 1.44938898 0.00582568 2.19604391 0.00882679 C2.96052262 0.00797237 3.72500134 0.00711794 4.51264608 0.00623763 C7.09381641 0.00458052 9.67492283 0.01010794 12.25608724 0.01555592 C14.09857583 0.01583777 15.94106454 0.0156801 17.78355306 0.01511341 C22.80193859 0.01482534 27.82030044 0.02072356 32.83868045 0.02768737 C38.07709361 0.03391938 43.31550725 0.03452459 48.55392355 0.03571278 C58.48099114 0.03882655 68.40804778 0.04704055 78.33511055 0.05706227 C89.63358718 0.068222 100.93206433 0.0737335 112.2305451 0.0787577 C135.47921823 0.08922312 158.72788162 0.10682344 181.97654623 0.12908131 C181.97654623 2.43908131 181.97654623 4.74908131 181.97654623 7.12908131 C119.93654623 7.12908131 57.89654623 7.12908131 -6.02345377 7.12908131 C-6.02345377 0.01835513 -6.02345377 0.01835513 0 0 Z " fill="#2A5666" transform="translate(33.023453772068024,524.8709186911583)"/>
<path d="M0 0 C2.2435529 -0.01713373 4.48560135 -0.06098914 6.72875977 -0.10522461 C8.16299373 -0.11535852 9.59724023 -0.12387244 11.03149414 -0.13061523 C12.3343335 -0.14519775 13.63717285 -0.15978027 14.97949219 -0.17480469 C19.17491425 0.37247372 21.31999112 1.65268809 24.58227539 4.29516602 C25.9350891 7.00079344 25.78836901 9.21410257 25.83227539 12.23266602 C25.85805664 13.29356445 25.88383789 14.35446289 25.91040039 15.44750977 C25.58227539 18.29516602 25.58227539 18.29516602 24.06665039 20.17407227 C23.57680664 20.5440332 23.08696289 20.91399414 22.58227539 21.29516602 C23.31897461 22.12274414 23.31897461 22.12274414 24.07055664 22.96704102 C26.6275452 26.90493555 25.76378512 30.69691959 25.58227539 35.29516602 C22.28227539 35.29516602 18.98227539 35.29516602 15.58227539 35.29516602 C15.25227539 32.98516602 14.92227539 30.67516602 14.58227539 28.29516602 C8.31227539 27.96516602 2.04227539 27.63516602 -4.41772461 27.29516602 C-4.41772461 29.93516602 -4.41772461 32.57516602 -4.41772461 35.29516602 C-7.71772461 35.29516602 -11.01772461 35.29516602 -14.41772461 35.29516602 C-14.44237651 30.471358 -14.46056154 25.64758635 -14.47265625 20.82373047 C-14.47769635 19.18147137 -14.48452839 17.53921678 -14.49316406 15.89697266 C-14.50524386 13.54141123 -14.510956 11.18590893 -14.51538086 8.83032227 C-14.52054214 8.09177505 -14.52570343 7.35322784 -14.53102112 6.59230042 C-14.53121711 4.82618514 -14.4796718 3.06019456 -14.41772461 1.29516602 C-11.71255144 -1.41000715 -3.89723666 0.02074124 0 0 Z " fill="#E36937" transform="translate(742.417724609375,464.704833984375)"/>
<path d="M0 0 C2.2435529 -0.01713373 4.48560135 -0.06098914 6.72875977 -0.10522461 C8.16299373 -0.11535852 9.59724023 -0.12387244 11.03149414 -0.13061523 C12.3343335 -0.14519775 13.63717285 -0.15978027 14.97949219 -0.17480469 C19.17491425 0.37247372 21.31999112 1.65268809 24.58227539 4.29516602 C25.9350891 7.00079344 25.78836901 9.21410257 25.83227539 12.23266602 C25.85805664 13.29356445 25.88383789 14.35446289 25.91040039 15.44750977 C25.58227539 18.29516602 25.58227539 18.29516602 24.06665039 20.17407227 C23.57680664 20.5440332 23.08696289 20.91399414 22.58227539 21.29516602 C23.31897461 22.12274414 23.31897461 22.12274414 24.07055664 22.96704102 C26.6275452 26.90493555 25.76378512 30.69691959 25.58227539 35.29516602 C22.28227539 35.29516602 18.98227539 35.29516602 15.58227539 35.29516602 C15.25227539 32.98516602 14.92227539 30.67516602 14.58227539 28.29516602 C8.31227539 27.96516602 2.04227539 27.63516602 -4.41772461 27.29516602 C-4.41772461 29.93516602 -4.41772461 32.57516602 -4.41772461 35.29516602 C-7.71772461 35.29516602 -11.01772461 35.29516602 -14.41772461 35.29516602 C-14.44237651 30.471358 -14.46056154 25.64758635 -14.47265625 20.82373047 C-14.47769635 19.18147137 -14.48452839 17.53921678 -14.49316406 15.89697266 C-14.50524386 13.54141123 -14.510956 11.18590893 -14.51538086 8.83032227 C-14.52054214 8.09177505 -14.52570343 7.35322784 -14.53102112 6.59230042 C-14.53121711 4.82618514 -14.4796718 3.06019456 -14.41772461 1.29516602 C-11.71255144 -1.41000715 -3.89723666 0.02074124 0 0 Z " fill="#E36938" transform="translate(501.417724609375,464.704833984375)"/>
<path d="M0 0 C5.176875 -0.061875 10.35375 -0.12375 15.6875 -0.1875 C17.31260498 -0.21481201 18.93770996 -0.24212402 20.61206055 -0.27026367 C21.89894775 -0.27775635 23.18583496 -0.28524902 24.51171875 -0.29296875 C25.82615967 -0.3086792 27.14060059 -0.32438965 28.49487305 -0.34057617 C32.20651492 0.02006605 34.04920221 0.77812256 37 3 C39.52397721 6.40584877 39.26750433 9.86897929 39.25 14 C39.25773437 15.8253125 39.25773437 15.8253125 39.265625 17.6875 C39.01522504 20.81013477 38.83027307 22.49785454 37 25 C33.74178391 27.06544333 31.17470697 27.23590114 27.359375 27.1953125 C26.28945313 27.18886719 25.21953125 27.18242187 24.1171875 27.17578125 C23.00601562 27.15902344 21.89484375 27.14226562 20.75 27.125 C19.62335938 27.11597656 18.49671875 27.10695313 17.3359375 27.09765625 C14.55707635 27.07410658 11.7786461 27.0412168 9 27 C9 29.64 9 32.28 9 35 C6.03 35 3.06 35 0 35 C0 23.45 0 11.9 0 0 Z " fill="#E26633" transform="translate(426,465)"/>
<path d="M0 0 C5.28 0 10.56 0 16 0 C21.92674235 6.13715924 21.92674235 6.13715924 23.44921875 8.88671875 C23.95461182 9.77496338 23.95461182 9.77496338 24.47021484 10.68115234 C24.81004395 11.28137207 25.14987305 11.8815918 25.5 12.5 C26.24081801 13.70767925 26.98688345 14.91215602 27.73828125 16.11328125 C29.56749269 19.04082716 31.27029808 22.00299172 33 25 C33.33 16.75 33.66 8.5 34 0 C37.3 0 40.6 0 44 0 C44 11.55 44 23.1 44 35 C38.39 35 32.78 35 27 35 C20.96366552 28.86284076 20.96366552 28.86284076 19.46289062 26.11328125 C19.1300708 25.52111816 18.79725098 24.92895508 18.4543457 24.31884766 C17.95100708 23.41851807 17.95100708 23.41851807 17.4375 22.5 C16.70158937 21.2921273 15.96008035 20.08764691 15.21289062 18.88671875 C13.39463769 15.96056253 11.71228273 13.00024508 10 10 C9.67 18.25 9.34 26.5 9 35 C6.03 35 3.06 35 0 35 C0 23.45 0 11.9 0 0 Z " fill="#E26431" transform="translate(165,465)"/>
<path d="M0 0 C1.07572266 0.00580078 2.15144531 0.01160156 3.25976562 0.01757812 C9.08442824 0.10785498 13.80973251 0.28041897 18.75 3.6875 C20.48724765 6.24765443 20.13828836 8.42567467 19.9375 11.4375 C16.6375 11.4375 13.3375 11.4375 9.9375 11.4375 C9.6075 10.7775 9.2775 10.1175 8.9375 9.4375 C3.3275 9.1075 -2.2825 8.7775 -8.0625 8.4375 C-8.0625 10.0875 -8.0625 11.7375 -8.0625 13.4375 C-6.12697266 13.40269531 -6.12697266 13.40269531 -4.15234375 13.3671875 C-2.43490166 13.34841764 -0.71745326 13.33021875 1 13.3125 C1.84755859 13.29574219 2.69511719 13.27898437 3.56835938 13.26171875 C8.75116472 13.22169709 13.08729987 13.53274 17.9375 15.4375 C20.30934142 18.99526212 20.23574394 20.71770607 20.25 24.9375 C20.26675781 26.0821875 20.28351562 27.226875 20.30078125 28.40625 C19.9375 31.4375 19.9375 31.4375 18.60546875 33.28125 C13.49801452 36.82178033 6.49434378 35.70375382 0.5625 35.75 C-0.66984375 35.77900391 -1.9021875 35.80800781 -3.171875 35.83789062 C-4.95464844 35.85045898 -4.95464844 35.85045898 -6.7734375 35.86328125 C-8.40224854 35.88515503 -8.40224854 35.88515503 -10.06396484 35.9074707 C-13.79880582 35.32209626 -15.45701281 34.14259996 -18.0625 31.4375 C-18.375 27.6875 -18.375 27.6875 -18.0625 24.4375 C-14.7625 24.4375 -11.4625 24.4375 -8.0625 24.4375 C-7.7325 25.4275 -7.4025 26.4175 -7.0625 27.4375 C-1.7825 27.4375 3.4975 27.4375 8.9375 27.4375 C9.2675 26.1175 9.5975 24.7975 9.9375 23.4375 C8.97710815 23.42348145 8.97710815 23.42348145 7.99731445 23.40917969 C5.08077625 23.35531153 2.16581375 23.27169801 -0.75 23.1875 C-1.75740234 23.17332031 -2.76480469 23.15914063 -3.80273438 23.14453125 C-11.31111789 22.89672981 -11.31111789 22.89672981 -15.20703125 20.515625 C-18.02638666 17.35794694 -18.31373694 15.29616369 -18.5 11.125 C-18.56058594 10.18011719 -18.62117187 9.23523438 -18.68359375 8.26171875 C-17.96929863 5.01369756 -16.81406794 3.37134874 -14.13745117 1.3815918 C-9.68151993 -0.64583332 -4.79588124 -0.14707754 0 0 Z " fill="#E26735" transform="translate(626.0625,464.5625)"/>
<path d="M0 0 C1.27617188 -0.01224609 2.55234375 -0.02449219 3.8671875 -0.03710938 C5.71957031 -0.04000977 5.71957031 -0.04000977 7.609375 -0.04296875 C9.30271973 -0.04913208 9.30271973 -0.04913208 11.03027344 -0.05541992 C15.48133114 0.2804007 18.97906347 1.28446615 22.625 3.875 C24.85023845 7.04168549 24.54058932 9.40983882 24.25 13.1875 C22.62581255 13.26840971 21.00048255 13.32664995 19.375 13.375 C18.47007813 13.40980469 17.56515625 13.44460938 16.6328125 13.48046875 C15.45332031 13.33544922 15.45332031 13.33544922 14.25 13.1875 C13.59 12.1975 12.93 11.2075 12.25 10.1875 C10.04253668 9.7554944 10.04253668 9.7554944 7.49609375 9.859375 C6.55958984 9.86453125 5.62308594 9.8696875 4.65820312 9.875 C3.67787109 9.895625 2.69753906 9.91625 1.6875 9.9375 C0.70330078 9.94265625 -0.28089844 9.9478125 -1.29492188 9.953125 C-5.86335344 9.58679363 -5.86335344 9.58679363 -9.75 11.1875 C-9.87537741 13.33057896 -9.92574364 15.47828886 -9.9375 17.625 C-9.95876953 19.38650391 -9.95876953 19.38650391 -9.98046875 21.18359375 C-10.06899256 24.30246902 -10.06899256 24.30246902 -7.75 26.1875 C-4.6256482 26.65938458 -1.46850061 26.55785541 1.6875 26.5625 C2.99557617 26.59923828 2.99557617 26.59923828 4.33007812 26.63671875 C6.7070641 26.64768102 8.91100921 26.61513513 11.25 26.1875 C13.04748326 24.26764286 13.04748326 24.26764286 14.25 22.1875 C16.73046875 21.796875 16.73046875 21.796875 19.4375 21.9375 C20.33855469 21.97359375 21.23960938 22.0096875 22.16796875 22.046875 C23.19857422 22.11648438 23.19857422 22.11648438 24.25 22.1875 C24.57470459 26.32748349 24.6804413 28.52749001 22.375 32.0625 C17.56651364 36.87098636 10.27051896 35.5274369 3.84741211 35.5925293 C2.24595574 35.61410702 0.64461724 35.6482083 -0.95629883 35.69506836 C-3.26957633 35.7621441 -5.58041799 35.78953496 -7.89453125 35.80859375 C-8.60615921 35.83642441 -9.31778717 35.86425507 -10.05097961 35.89292908 C-14.1694801 35.87597216 -15.62332779 35.30340387 -18.69946289 32.48876953 C-20.76739726 29.15949123 -21.38998302 27.59021074 -21.4140625 23.74609375 C-21.42050781 22.75029297 -21.42695313 21.75449219 -21.43359375 20.72851562 C-21.41425781 19.70435547 -21.39492188 18.68019531 -21.375 17.625 C-21.39433594 16.59697266 -21.41367187 15.56894531 -21.43359375 14.50976562 C-21.38503235 7.01674127 -21.38503235 7.01674127 -18.3359375 3.03515625 C-12.6571336 -1.02235771 -6.79859267 0.00339251 0 0 Z " fill="#E26735" transform="translate(47.75,464.8125)"/>
<path d="M0 0 C1.47583955 0.0001591 2.95168467 0.00585225 4.42749023 0.01586914 C5.20293686 0.01728409 5.97838348 0.01869904 6.77732849 0.02015686 C9.26361893 0.02577194 11.74982059 0.03832693 14.23608398 0.05102539 C15.91772331 0.05603845 17.59936405 0.06060169 19.28100586 0.06469727 C23.41189965 0.07574626 27.54272674 0.09302094 31.67358398 0.11352539 C31.67358398 3.08352539 31.67358398 6.05352539 31.67358398 9.11352539 C23.09358398 9.11352539 14.51358398 9.11352539 5.67358398 9.11352539 C5.67358398 10.76352539 5.67358398 12.41352539 5.67358398 14.11352539 C13.92358398 14.11352539 22.17358398 14.11352539 30.67358398 14.11352539 C30.67358398 16.42352539 30.67358398 18.73352539 30.67358398 21.11352539 C22.42358398 21.11352539 14.17358398 21.11352539 5.67358398 21.11352539 C5.67358398 23.09352539 5.67358398 25.07352539 5.67358398 27.11352539 C14.25358398 27.11352539 22.83358398 27.11352539 31.67358398 27.11352539 C31.67358398 29.75352539 31.67358398 32.39352539 31.67358398 35.11352539 C19.79358398 35.11352539 7.91358398 35.11352539 -4.32641602 35.11352539 C-4.34704102 29.52415039 -4.36766602 23.93477539 -4.38891602 18.17602539 C-4.39802002 16.41009033 -4.40712402 14.64415527 -4.41650391 12.82470703 C-4.41942315 11.43269934 -4.42197169 10.04069081 -4.42407227 8.64868164 C-4.43174622 7.55517395 -4.43174622 7.55517395 -4.4395752 6.4395752 C-4.43988613 4.66382463 -4.38870116 2.88818331 -4.32641602 1.11352539 C-3.32641602 0.11352539 -3.32641602 0.11352539 0 0 Z " fill="#E26735" transform="translate(864.326416015625,464.886474609375)"/>
<path d="M0 0 C4.95 0 9.9 0 15 0 C20.86058402 11.57744799 26.48466303 23.25437497 32 35 C30.20906809 35.08086147 28.41710372 35.13912702 26.625 35.1875 C25.12839844 35.23970703 25.12839844 35.23970703 23.6015625 35.29296875 C22.74304688 35.19628906 21.88453125 35.09960938 21 35 C19 32 19 32 19 29 C15.39442684 29.0227664 11.7920381 29.1000221 8.1875 29.1875 C7.16333984 29.19330078 6.13917969 29.19910156 5.08398438 29.20507812 C2.30014601 29.28722418 -0.27922133 29.39979837 -3 30 C-4.92643582 32.4168478 -4.92643582 32.4168478 -6 35 C-8.48046875 35.48828125 -8.48046875 35.48828125 -11.1875 35.3125 C-12.08855469 35.26738281 -12.98960937 35.22226562 -13.91796875 35.17578125 C-14.94857422 35.08876953 -14.94857422 35.08876953 -16 35 C-14.59727316 30.47876456 -12.8130426 26.32497843 -10.7421875 22.0703125 C-10.43427277 21.43511688 -10.12635803 20.79992126 -9.80911255 20.14547729 C-8.83450633 18.13696251 -7.85484669 16.13096259 -6.875 14.125 C-6.20929859 12.75537199 -5.54393067 11.38558185 -4.87890625 10.015625 C-3.25706637 6.67487753 -1.62840162 3.33758556 0 0 Z " fill="#E26633" transform="translate(333,465)"/>
<path d="M0 0 C4.95 0 9.9 0 15 0 C16.73175599 3.43621634 18.46045004 6.87391915 20.1875 10.3125 C20.67025391 11.26962891 21.15300781 12.22675781 21.65039062 13.21289062 C31 31.84936032 31 31.84936032 31 35 C29.39815374 35.1352403 27.79303374 35.23210847 26.1875 35.3125 C25.29417969 35.37050781 24.40085938 35.42851562 23.48046875 35.48828125 C22.66191406 35.32714844 21.84335938 35.16601562 21 35 C20.61457031 34.18144531 20.22914063 33.36289062 19.83203125 32.51953125 C18.29012919 29.81891803 18.29012919 29.81891803 15.85229492 29.50805664 C13.0531202 29.32511252 10.30444472 29.31868585 7.5 29.375 C6.53707031 29.35566406 5.57414062 29.33632813 4.58203125 29.31640625 C1.94660709 29.33478438 -0.43017997 29.41083316 -3 30 C-4.84312808 32.42841988 -4.84312808 32.42841988 -6 35 C-8.69921875 35.48828125 -8.69921875 35.48828125 -11.6875 35.3125 C-12.68136719 35.26738281 -13.67523438 35.22226562 -14.69921875 35.17578125 C-15.83810547 35.08876953 -15.83810547 35.08876953 -17 35 C-11.48466303 23.25437497 -5.86058402 11.57744799 0 0 Z " fill="#E26633" transform="translate(111,465)"/>
<path d="M0 0 C5.754375 -0.020625 11.50875 -0.04125 17.4375 -0.0625 C19.25564209 -0.071604 21.07378418 -0.08070801 22.94702148 -0.09008789 C24.38004482 -0.09300711 25.81306898 -0.09555566 27.24609375 -0.09765625 C27.99669067 -0.10277222 28.7472876 -0.10788818 29.52062988 -0.11315918 C31.34747601 -0.11346992 33.17421683 -0.06231113 35 0 C36 1 36 1 36 9 C27.42 9 18.84 9 10 9 C10 10.65 10 12.3 10 14 C17.92 14 25.84 14 34 14 C34 16.31 34 18.62 34 21 C25.75 21 17.5 21 9 21 C9 22.98 9 24.96 9 27 C17.91 27 26.82 27 36 27 C36 29.64 36 32.28 36 35 C24.12 35 12.24 35 0 35 C0 23.45 0 11.9 0 0 Z " fill="#E26633" transform="translate(670,465)"/>
<path d="M0 0 C11.55 0 23.1 0 35 0 C35 2.97 35 5.94 35 9 C26.42 9 17.84 9 9 9 C9 10.65 9 12.3 9 14 C17.25 14 25.5 14 34 14 C34 16.31 34 18.62 34 21 C25.75 21 17.5 21 9 21 C9 22.98 9 24.96 9 27 C17.58 27 26.16 27 35 27 C35 29.64 35 32.28 35 35 C23.45 35 11.9 35 0 35 C0 23.45 0 11.9 0 0 Z " fill="#E26431" transform="translate(550,465)"/>
<path d="M0 0 C0.67671753 -0.00287018 1.35343506 -0.00574036 2.05065918 -0.00869751 C3.47958209 -0.01073647 4.90853302 -0.00521819 6.33740234 0.00732422 C8.52374725 0.02338239 10.70824379 0.00747216 12.89453125 -0.01171875 C14.28385824 -0.00973629 15.67318409 -0.00589254 17.0625 0 C18.32642578 0.00338379 19.59035156 0.00676758 20.89257812 0.01025391 C24.03125 0.3984375 24.03125 0.3984375 25.93969727 1.68139648 C27.89400969 4.75558107 27.50131832 8.3096771 27.46875 11.8359375 C27.4987207 12.9815918 27.4987207 12.9815918 27.52929688 14.15039062 C27.52865234 14.89095703 27.52800781 15.63152344 27.52734375 16.39453125 C27.53012329 17.40277954 27.53012329 17.40277954 27.53295898 18.43139648 C26.77226104 21.41385067 25.47696882 22.56709489 23.03125 24.3984375 C19.97851562 24.91601562 19.97851562 24.91601562 16.4375 24.9296875 C15.16003906 24.93484375 13.88257813 24.94 12.56640625 24.9453125 C11.57278076 24.93274414 11.57278076 24.93274414 10.55908203 24.91992188 C8.53686552 24.898497 6.51820039 24.91973489 4.49609375 24.9453125 C3.21863281 24.94015625 1.94117188 24.935 0.625 24.9296875 C-0.54353516 24.92517578 -1.71207031 24.92066406 -2.91601562 24.91601562 C-6.59560793 24.2921564 -7.78637414 23.38715039 -9.96875 20.3984375 C-10.47045898 18.43139648 -10.47045898 18.43139648 -10.46484375 16.39453125 C-10.46548828 15.65396484 -10.46613281 14.91339844 -10.46679688 14.15039062 C-10.44681641 13.38662109 -10.42683594 12.62285156 -10.40625 11.8359375 C-10.41333984 11.06830078 -10.42042969 10.30066406 -10.42773438 9.50976562 C-10.36554335 4.02260383 -10.36554335 4.02260383 -8.87719727 1.68139648 C-5.96826981 -0.27413809 -3.47243015 0.00929641 0 0 Z " fill="#F7FAF9" transform="translate(382.96875,407.6015625)"/>
<path d="M0 0 C0.7027002 -0.00191345 1.40540039 -0.0038269 2.12939453 -0.00579834 C3.61556354 -0.00715975 5.10174445 -0.00346632 6.58789062 0.00488281 C8.86615646 0.01558346 11.14363377 0.00498661 13.421875 -0.0078125 C14.86458508 -0.0064909 16.30729466 -0.00392849 17.75 0 C19.06742188 0.00225586 20.38484375 0.00451172 21.7421875 0.00683594 C24.875 0.265625 24.875 0.265625 26.875 2.265625 C27.34688458 5.3899768 27.24535541 8.54712439 27.25 11.703125 C27.27449219 12.57517578 27.29898438 13.44722656 27.32421875 14.34570312 C27.33001953 15.60350586 27.33001953 15.60350586 27.3359375 16.88671875 C27.34415527 17.6542749 27.35237305 18.42183105 27.36083984 19.21264648 C26.875 21.265625 26.875 21.265625 25.26049805 23.0144043 C22.1220188 24.66057216 19.78434209 24.65387211 16.24609375 24.6640625 C14.32313477 24.66986328 14.32313477 24.66986328 12.36132812 24.67578125 C11.3646814 24.66635498 11.3646814 24.66635498 10.34790039 24.65673828 C8.31523777 24.64064667 6.28455499 24.65661735 4.25195312 24.67578125 C2.97126953 24.67191406 1.69058594 24.66804688 0.37109375 24.6640625 C-0.80267822 24.66067871 -1.9764502 24.65729492 -3.18579102 24.65380859 C-6.125 24.265625 -6.125 24.265625 -8.00830078 23.0144043 C-9.40824806 20.82205136 -9.49834956 19.47917261 -9.48828125 16.88671875 C-9.48763672 16.04818359 -9.48699219 15.20964844 -9.48632812 14.34570312 C-9.47021484 13.47365234 -9.45410156 12.60160156 -9.4375 11.703125 C-9.44072266 10.82720703 -9.44394531 9.95128906 -9.44726562 9.04882812 C-9.38114932 1.2410931 -8.16668419 0.01398405 0 0 Z " fill="#FAFCFB" transform="translate(729.125,407.734375)"/>
<path d="M0 0 C4.50293372 -0.06888341 9.00403919 -0.12860848 13.50708008 -0.16479492 C15.03871861 -0.17987936 16.57031398 -0.20034978 18.10180664 -0.22631836 C20.30365654 -0.26271847 22.50493533 -0.27972913 24.70703125 -0.29296875 C25.39150833 -0.30845261 26.07598541 -0.32393646 26.78120422 -0.33988953 C29.59793788 -0.34088611 31.54235555 -0.30320177 33.92651367 1.27636719 C35.85243252 4.36869993 35.51185848 7.90663734 35.5 11.4375 C35.52835937 12.20126953 35.55671875 12.96503906 35.5859375 13.75195312 C35.58980469 14.86280273 35.58980469 14.86280273 35.59375 15.99609375 C35.60083984 16.66825928 35.60792969 17.3404248 35.61523438 18.03295898 C34.61426097 21.2332934 32.80999804 22.28300212 30 24 C26.6784668 24.45410156 26.6784668 24.45410156 22.94921875 24.390625 C22.29041214 24.38496521 21.63160553 24.37930542 20.95283508 24.37347412 C18.86362784 24.35121239 16.77618227 24.3010433 14.6875 24.25 C13.26499886 24.22992144 11.84247063 24.21167304 10.41992188 24.1953125 C6.94540207 24.15479332 3.47465522 24.07650617 0 24 C0 16.08 0 8.16 0 0 Z " fill="#F9FBFA" transform="translate(241,408)"/>
<path d="M0 0 C3.3 0 6.6 0 10 0 C10.67546875 1.29035156 11.3509375 2.58070313 12.046875 3.91015625 C12.94784971 5.62763929 13.84889513 7.34508524 14.75 9.0625 C15.1934375 9.91005859 15.636875 10.75761719 16.09375 11.63085938 C16.53203125 12.46552734 16.9703125 13.30019531 17.421875 14.16015625 C18.01887207 15.29916382 18.01887207 15.29916382 18.62792969 16.46118164 C20.36291549 19.67152281 22.18950301 22.83163027 24 26 C28.29 17.42 32.58 8.84 37 0 C40.3 0 43.6 0 47 0 C46.36009459 4.35833008 44.79567499 7.84678726 42.875 11.796875 C42.56804199 12.43111389 42.26108398 13.06535278 41.94482422 13.71881104 C41.29859125 15.05131745 40.64961388 16.38249602 39.99804688 17.71240234 C38.9977667 19.75455948 38.00601487 21.80068708 37.015625 23.84765625 C32.15942757 33.84057243 32.15942757 33.84057243 31 35 C28.46950598 35.07313567 25.96695163 35.09247527 23.4375 35.0625 C22.72658203 35.05798828 22.01566406 35.05347656 21.28320312 35.04882812 C19.52209987 35.03700864 17.76103964 35.01907263 16 35 C13.71635949 30.33933873 11.43783351 25.67622642 9.1640625 21.01074219 C8.3894317 19.42313895 7.61339456 17.83622112 6.8359375 16.25 C5.72027239 13.97313242 4.60964724 11.69386775 3.5 9.4140625 C3.15001953 8.70255035 2.80003906 7.99103821 2.43945312 7.25796509 C0 2.22774341 0 2.22774341 0 0 Z " fill="#E26633" transform="translate(789,465)"/>
<path d="M0 0 C5.53588533 -0.02464775 11.071739 -0.04283496 16.60766602 -0.05493164 C18.4924373 -0.05997244 20.37720465 -0.06680498 22.26196289 -0.07543945 C24.96501636 -0.08751617 27.66801831 -0.09323068 30.37109375 -0.09765625 C31.21900986 -0.10281754 32.06692596 -0.10797882 32.9405365 -0.11329651 C34.96071068 -0.11349195 36.98077934 -0.06206211 39 0 C40 1 40 1 40.09765625 3.06640625 C40.06510417 5.37760417 40.03255208 7.68880208 40 10 C35.05 10 30.1 10 25 10 C25 18.25 25 26.5 25 35 C21.37 35 17.74 35 14 35 C14 26.75 14 18.5 14 10 C9.38 10 4.76 10 0 10 C0 6.7 0 3.4 0 0 Z " fill="#E36938" transform="translate(264,465)"/>
<path d="M0 0 C0.969375 -0.00386719 1.93875 -0.00773438 2.9375 -0.01171875 C3.948125 -0.00011719 4.95875 0.01148438 6 0.0234375 C7.010625 0.01183594 8.02125 0.00023437 9.0625 -0.01171875 C10.031875 -0.00785156 11.00125 -0.00398437 12 0 C12.886875 0.00338379 13.77375 0.00676758 14.6875 0.01025391 C17.47390758 0.47798913 18.36442713 1.12014202 20 3.3984375 C20.32555326 6.00286358 20.46472826 8.29937627 20.4375 10.8984375 C20.4674707 11.91357422 20.4674707 11.91357422 20.49804688 12.94921875 C20.49609375 14.9296875 20.49609375 14.9296875 20 18.3984375 C15.81133753 22.46146945 11.5137627 21.87925992 6 21.8359375 C5.09765625 21.85591797 4.1953125 21.87589844 3.265625 21.89648438 C-0.64422899 21.89359247 -3.21774416 21.87602527 -6.59765625 19.8125 C-8.50508805 16.52895446 -8.49711694 14.11565139 -8.4375 10.3359375 C-8.43621094 9.10746094 -8.43492187 7.87898437 -8.43359375 6.61328125 C-8 3.3984375 -8 3.3984375 -6.78540039 1.72241211 C-4.4219711 -0.03020338 -2.92545217 0.01116179 0 0 Z " fill="#225061" transform="translate(390,517.6015625)"/>
<path d="M0 0 C5.92648574 -0.07409532 11.85270253 -0.12857616 17.77954102 -0.16479492 C19.79619034 -0.17989179 21.81280679 -0.20037115 23.8293457 -0.22631836 C26.72615671 -0.26266211 29.62253406 -0.2797172 32.51953125 -0.29296875 C33.42274612 -0.30845261 34.325961 -0.32393646 35.25654602 -0.33988953 C36.5175135 -0.34022942 36.5175135 -0.34022942 37.80395508 -0.34057617 C38.54341873 -0.34723801 39.28288239 -0.35389984 40.04475403 -0.36076355 C42.58123915 0.10724477 43.45815269 0.96298863 45 3 C45.64369741 8.14957926 45.64369741 8.14957926 43.73881531 10.66621399 C41.58438301 12.31880564 40.49643108 12.36483271 37.80395508 12.34057617 C36.96331009 12.34034958 36.1226651 12.34012299 35.25654602 12.33988953 C34.35333115 12.32440567 33.45011627 12.30892181 32.51953125 12.29296875 C31.59154221 12.28872391 30.66355316 12.28447906 29.70744324 12.28010559 C26.74216757 12.26330662 23.7775704 12.22565216 20.8125 12.1875 C18.80274419 12.17245474 16.79297773 12.15876606 14.78320312 12.14648438 C9.85520714 12.11339908 4.92771862 12.06160833 0 12 C0 8.04 0 4.08 0 0 Z " fill="#F9FAFA" transform="translate(457,93)"/>
<path d="M0 0 C3.63 0 7.26 0 11 0 C16 9.75 16 9.75 16 12 C16.66 12 17.32 12 18 12 C18.0825 11.319375 18.165 10.63875 18.25 9.9375 C19.22332528 6.1253093 20.95807455 3.35929671 23 0 C26.63 0 30.26 0 34 0 C34 6.93 34 13.86 34 21 C31.69 21 29.38 21 27 21 C26.505 14.565 26.505 14.565 26 8 C24.02 12.29 22.04 16.58 20 21 C18.02 21 16.04 21 14 21 C12.02 16.71 10.04 12.42 8 8 C7.67 12.29 7.34 16.58 7 21 C4.69 21 2.38 21 0 21 C0 14.07 0 7.14 0 0 Z " fill="#2B5767" transform="translate(598,518)"/>
<path d="M0 0 C9.60921759 -0.11469888 19.20789519 -0.01806154 28.8125 0.3125 C29.7607666 0.33497803 30.7090332 0.35745605 31.68603516 0.38061523 C32.57983887 0.41614502 33.47364258 0.4516748 34.39453125 0.48828125 C35.18706299 0.51446533 35.97959473 0.54064941 36.79614258 0.56762695 C39.53924331 1.10579372 40.96849477 2.10307308 43 4 C43.4375 6.5 43.4375 6.5 43 9 C41.47107798 10.95817006 40.58887259 11.886957 38.12068176 12.36076355 C37.41674789 12.35410172 36.71281403 12.34743988 35.98754883 12.34057617 C35.18694534 12.34034958 34.38634186 12.34012299 33.56147766 12.33988953 C32.70201035 12.32440567 31.84254303 12.30892181 30.95703125 12.29296875 C30.0734343 12.28872391 29.18983734 12.28447906 28.27946472 12.28010559 C25.45683339 12.26331043 22.63491559 12.22565697 19.8125 12.1875 C17.89909885 12.17245423 15.98568651 12.15876564 14.07226562 12.14648438 C9.38123541 12.11340419 4.69073869 12.0616163 0 12 C0 8.04 0 4.08 0 0 Z " fill="#F4F6F7" transform="translate(457,66)"/>
<path d="M0 0 C3.60461295 -0.08076726 7.20742563 -0.14038951 10.8125 -0.1875 C12.34874023 -0.22520508 12.34874023 -0.22520508 13.91601562 -0.26367188 C15.39038086 -0.27817383 15.39038086 -0.27817383 16.89453125 -0.29296875 C18.25348511 -0.31653442 18.25348511 -0.31653442 19.63989258 -0.34057617 C22 0 22 0 23.79418945 1.38574219 C25.37112507 3.49683721 25.40146407 4.82196732 25.375 7.4375 C25.38273437 8.19933594 25.39046875 8.96117187 25.3984375 9.74609375 C24.87174654 12.72551221 24.28415983 13.98027384 22 16 C19.28770497 16.29642569 17.00260268 16.38061189 14.3125 16.25 C13.2596582 16.22292969 13.2596582 16.22292969 12.18554688 16.1953125 C10.45644564 16.14826213 8.72804795 16.07651873 7 16 C7 17.65 7 19.3 7 21 C4.69 21 2.38 21 0 21 C0 14.07 0 7.14 0 0 Z " fill="#255263" transform="translate(453,518)"/>
<path d="M0 0 C6.95854922 -1.14507772 6.95854922 -1.14507772 11 0 C14.73273269 3.95136418 17.36608894 8.26546357 20 13 C20.33 8.71 20.66 4.42 21 0 C23.31 0 25.62 0 28 0 C28 6.93 28 13.86 28 21 C21.12953368 22.32124352 21.12953368 22.32124352 17 21 C12.7048178 16.79136356 9.86830639 11.22641511 7 6 C6.67 10.95 6.34 15.9 6 21 C4.02 21 2.04 21 0 21 C0 14.07 0 7.14 0 0 Z " fill="#295566" transform="translate(524,518)"/>
<path d="M0 0 C3.62544051 -0.08063171 7.24910455 -0.14032292 10.875 -0.1875 C12.42380859 -0.22520508 12.42380859 -0.22520508 14.00390625 -0.26367188 C14.99003906 -0.27333984 15.97617187 -0.28300781 16.9921875 -0.29296875 C17.90339355 -0.3086792 18.81459961 -0.32438965 19.75341797 -0.34057617 C20.49479004 -0.22818604 21.23616211 -0.1157959 22 0 C24.05680002 3.08520003 24.29466814 3.91273504 24.3125 7.4375 C24.33763672 8.58025391 24.33763672 8.58025391 24.36328125 9.74609375 C23.88010407 12.74387042 23.29328719 13.97624258 21 16 C18.28770497 16.29642569 16.00260268 16.38061189 13.3125 16.25 C12.2596582 16.22292969 12.2596582 16.22292969 11.18554688 16.1953125 C9.45644564 16.14826213 7.72804795 16.07651873 6 16 C6 17.65 6 19.3 6 21 C4.02 21 2.04 21 0 21 C0 14.07 0 7.14 0 0 Z " fill="#1C4A5C" transform="translate(350,518)"/>
<path d="M0 0 C1.53333984 -0.00386719 1.53333984 -0.00386719 3.09765625 -0.0078125 C4.16886719 -0.00007812 5.24007813 0.00765625 6.34375 0.015625 C7.95056641 0.00402344 7.95056641 0.00402344 9.58984375 -0.0078125 C10.61207031 -0.00523437 11.63429688 -0.00265625 12.6875 0 C13.62787109 0.00225586 14.56824219 0.00451172 15.53710938 0.00683594 C17.84375 0.265625 17.84375 0.265625 19.84375 2.265625 C19.96875 5.390625 19.96875 5.390625 19.84375 8.265625 C17.86375 8.265625 15.88375 8.265625 13.84375 8.265625 C13.51375 7.605625 13.18375 6.945625 12.84375 6.265625 C8.55375 6.265625 4.26375 6.265625 -0.15625 6.265625 C-0.15625 9.235625 -0.15625 12.205625 -0.15625 15.265625 C1.80178507 15.31951587 3.76023909 15.35836717 5.71875 15.390625 C6.80929687 15.41382813 7.89984375 15.43703125 9.0234375 15.4609375 C11.9808551 15.56623034 11.9808551 15.56623034 13.84375 13.265625 C16.96875 13.140625 16.96875 13.140625 19.84375 13.265625 C20.20898504 17.77019044 20.20898504 17.77019044 18.63085938 19.91088867 C16.31292477 21.66802243 14.95161335 21.63909858 12.0625 21.62890625 C11.13824219 21.62826172 10.21398437 21.62761719 9.26171875 21.62695312 C8.29878906 21.61083984 7.33585937 21.59472656 6.34375 21.578125 C5.38082031 21.58134766 4.41789062 21.58457031 3.42578125 21.58789062 C-3.75548115 21.53280423 -3.75548115 21.53280423 -7.15625 19.265625 C-7.43195606 16.34847699 -7.5285061 13.6769424 -7.46875 10.765625 C-7.47197266 9.98058594 -7.47519531 9.19554687 -7.47851562 8.38671875 C-7.41647736 1.81066271 -6.61270809 0.01586325 0 0 Z " fill="#204E5F" transform="translate(255.15625,517.734375)"/>
<path d="M0 0 C3.3 0 6.6 0 10 0 C11.29761299 2.37191584 12.58816317 4.74724614 13.875 7.125 C14.23980469 7.79015625 14.60460937 8.4553125 14.98046875 9.140625 C17.06980244 13.01538929 18.74424611 16.75687369 20 21 C17.69 21 15.38 21 13 21 C12.67 19.68 12.34 18.36 12 17 C9.87422093 17.0868276 7.74930419 17.1949951 5.625 17.3125 C4.44164062 17.37050781 3.25828125 17.42851563 2.0390625 17.48828125 C1.03617188 17.65714844 0.03328125 17.82601562 -1 18 C-1.66 18.99 -2.32 19.98 -3 21 C-6.625 21.1875 -6.625 21.1875 -10 21 C-8.52118275 17.87483453 -7.04188678 14.7498959 -5.5625 11.625 C-5.14162109 10.73554687 -4.72074219 9.84609375 -4.28710938 8.9296875 C-3.88427734 8.07890625 -3.48144531 7.228125 -3.06640625 6.3515625 C-2.5086853 5.17327881 -2.5086853 5.17327881 -1.93969727 3.97119141 C-1.30575142 2.641371 -0.65883376 1.31766752 0 0 Z " fill="#214E60" transform="translate(650,518)"/>
<path d="M0 0 C1.37478516 0.01740234 1.37478516 0.01740234 2.77734375 0.03515625 C3.69644531 0.04417969 4.61554688 0.05320312 5.5625 0.0625 C6.27277344 0.07410156 6.98304688 0.08570313 7.71484375 0.09765625 C9.00901775 2.65891689 10.30025159 5.22158983 11.58984375 7.78515625 C11.95464844 8.50638672 12.31945312 9.22761719 12.6953125 9.97070312 C14.53276795 13.62890989 16.27622877 17.25882575 17.71484375 21.09765625 C15.40484375 21.09765625 13.09484375 21.09765625 10.71484375 21.09765625 C10.38484375 19.77765625 10.05484375 18.45765625 9.71484375 17.09765625 C5.09484375 17.09765625 0.47484375 17.09765625 -4.28515625 17.09765625 C-4.61515625 18.41765625 -4.94515625 19.73765625 -5.28515625 21.09765625 C-7.59515625 21.09765625 -9.90515625 21.09765625 -12.28515625 21.09765625 C-10.80967903 17.78350057 -9.32916044 14.47162161 -7.84765625 11.16015625 C-7.42677734 10.21462891 -7.00589844 9.26910156 -6.57226562 8.29492188 C-6.16943359 7.39580078 -5.76660156 6.49667969 -5.3515625 5.5703125 C-4.97974854 4.73765869 -4.60793457 3.90500488 -4.22485352 3.04711914 C-2.81402182 0.12025734 -2.81402182 0.12025734 0 0 Z " fill="#1F4D5F" transform="translate(498.28515625,517.90234375)"/>
<path d="M0 0 C3.3 0 6.6 0 10 0 C11.294174 2.56126064 12.58540784 5.12393358 13.875 7.6875 C14.23980469 8.40873047 14.60460937 9.12996094 14.98046875 9.87304688 C16.8179242 13.53125364 18.56138502 17.1611695 20 21 C17.69 21 15.38 21 13 21 C12.67 19.68 12.34 18.36 12 17 C7.38 17 2.76 17 -2 17 C-2.33 18.32 -2.66 19.64 -3 21 C-5.31 21 -7.62 21 -10 21 C-8.52118275 17.87483453 -7.04188678 14.7498959 -5.5625 11.625 C-5.14162109 10.73554687 -4.72074219 9.84609375 -4.28710938 8.9296875 C-3.88427734 8.07890625 -3.48144531 7.228125 -3.06640625 6.3515625 C-2.5086853 5.17327881 -2.5086853 5.17327881 -1.93969727 3.97119141 C-1.30575142 2.641371 -0.65883376 1.31766752 0 0 Z " fill="#1F4D5F" transform="translate(570,518)"/>
<path d="M0 0 C2.97 0 5.94 0 9 0 C10 1 10 1 10.11352539 4.23461914 C10.11336631 5.66814126 10.10767407 7.10166912 10.09765625 8.53515625 C10.0962413 9.28840683 10.09482635 10.04165741 10.09336853 10.81773376 C10.08775376 13.2326956 10.07519883 15.64756601 10.0625 18.0625 C10.0574869 19.69596221 10.05292366 21.32942586 10.04882812 22.96289062 C10.03777954 26.97529585 10.02050506 30.98763241 10 35 C6.7 35 3.4 35 0 35 C0 23.45 0 11.9 0 0 Z " fill="#E36A39" transform="translate(232,465)"/>
<path d="M0 0 C7.26 0 14.52 0 22 0 C22 1.65 22 3.3 22 5 C16.72 5 11.44 5 6 5 C6 5.99 6 6.98 6 8 C10.95 8 15.9 8 21 8 C21 9.32 21 10.64 21 12 C16.05 12 11.1 12 6 12 C6 13.32 6 14.64 6 16 C11.28 16 16.56 16 22 16 C22 17.65 22 19.3 22 21 C14.74 21 7.48 21 0 21 C0 14.07 0 7.14 0 0 Z " fill="#1B4A5C" transform="translate(319,518)"/>
<path d="M0 0 C4.4584922 -0.05371677 8.91634389 -0.09353771 13.375 -0.125 C15.28152344 -0.15013672 15.28152344 -0.15013672 17.2265625 -0.17578125 C18.43828125 -0.18222656 19.65 -0.18867188 20.8984375 -0.1953125 C22.01911621 -0.20578613 23.13979492 -0.21625977 24.29443359 -0.22705078 C27 0 27 0 29 2 C29.56055901 8.16614907 29.56055901 8.16614907 27.85424805 10.7043457 C25.20145211 12.55798468 23.23236538 12.33998583 20.01953125 12.29296875 C18.85615234 12.28330078 17.69277344 12.27363281 16.49414062 12.26367188 C15.27919922 12.23853516 14.06425781 12.21339844 12.8125 12.1875 C11.58595703 12.17396484 10.35941406 12.16042969 9.09570312 12.14648438 C6.0636155 12.11109036 3.03175309 12.05728295 0 12 C0 8.04 0 4.08 0 0 Z " fill="#F8FBF9" transform="translate(443,408)"/>
<path d="M0 0 C1.98 0 3.96 0 6 0 C6 2.31 6 4.62 6 7 C10.62 7 15.24 7 20 7 C20 4.69 20 2.38 20 0 C21.98 0 23.96 0 26 0 C26 6.93 26 13.86 26 21 C24.02 21 22.04 21 20 21 C20 18.36 20 15.72 20 13 C15.38 13 10.76 13 6 13 C6 15.64 6 18.28 6 21 C4.02 21 2.04 21 0 21 C0 14.07 0 7.14 0 0 Z " fill="#1B4A5C" transform="translate(284,518)"/>
<path d="M0 0 C3.95096978 -0.04939662 7.9018203 -0.08571755 11.85302734 -0.10986328 C13.8591136 -0.12488107 15.86511324 -0.15028981 17.87109375 -0.17578125 C19.12792969 -0.18222656 20.38476562 -0.18867188 21.6796875 -0.1953125 C22.84226074 -0.20578613 24.00483398 -0.21625977 25.20263672 -0.22705078 C28 0 28 0 30 2 C30.55157729 7.18482657 30.55157729 7.18482657 28.86791992 9.6730957 C26.15935225 11.59716645 24.09602089 11.33938058 20.80078125 11.29296875 C19.59228516 11.28330078 18.38378906 11.27363281 17.13867188 11.26367188 C15.87603516 11.23853516 14.61339844 11.21339844 13.3125 11.1875 C11.40114258 11.16719727 11.40114258 11.16719727 9.45117188 11.14648438 C6.30035943 11.11108199 3.15038955 11.0616979 0 11 C0 7.37 0 3.74 0 0 Z " fill="#FAFCFB" transform="translate(536,408)"/>
<path d="M0 0 C4.45827926 -0.0578304 8.9164628 -0.09353855 13.375 -0.125 C15.28152344 -0.15013672 15.28152344 -0.15013672 17.2265625 -0.17578125 C18.43828125 -0.18222656 19.65 -0.18867188 20.8984375 -0.1953125 C22.01911621 -0.20578613 23.13979492 -0.21625977 24.29443359 -0.22705078 C27 0 27 0 29 2 C29.55247296 7.19324585 29.55247296 7.19324585 27.85424805 9.6730957 C25.20466534 11.56914337 23.25275978 11.34028429 20.01953125 11.29296875 C18.85615234 11.28330078 17.69277344 11.27363281 16.49414062 11.26367188 C15.27919922 11.23853516 14.06425781 11.21339844 12.8125 11.1875 C11.58595703 11.17396484 10.35941406 11.16042969 9.09570312 11.14648438 C6.06336336 11.11108741 3.03190004 11.0617076 0 11 C0 7.37 0 3.74 0 0 Z " fill="#FDFEFD" transform="translate(791,408)"/>
<path d="M0 0 C4.45827926 -0.0578304 8.9164628 -0.09353855 13.375 -0.125 C15.28152344 -0.15013672 15.28152344 -0.15013672 17.2265625 -0.17578125 C18.43828125 -0.18222656 19.65 -0.18867188 20.8984375 -0.1953125 C22.01911621 -0.20578613 23.13979492 -0.21625977 24.29443359 -0.22705078 C27 0 27 0 29 2 C29.55247296 7.19324585 29.55247296 7.19324585 27.85424805 9.6730957 C25.20466534 11.56914337 23.25275978 11.34028429 20.01953125 11.29296875 C18.85615234 11.28330078 17.69277344 11.27363281 16.49414062 11.26367188 C15.27919922 11.23853516 14.06425781 11.21339844 12.8125 11.1875 C11.58595703 11.17396484 10.35941406 11.16042969 9.09570312 11.14648438 C6.06336336 11.11108741 3.03190004 11.0617076 0 11 C0 7.37 0 3.74 0 0 Z " fill="#FEFEFE" transform="translate(311,408)"/>
<path d="M0 0 C3.14581423 -0.02888514 6.29159469 -0.04675923 9.4375 -0.0625 C10.33533203 -0.07087891 11.23316406 -0.07925781 12.15820312 -0.08789062 C13.01220703 -0.09111328 13.86621094 -0.09433594 14.74609375 -0.09765625 C15.93223267 -0.10551147 15.93223267 -0.10551147 17.14233398 -0.11352539 C19 0 19 0 20 1 C20.125 4 20.125 4 20 7 C19 8 19 8 17.14233398 8.11352539 C16.35157471 8.10828857 15.56081543 8.10305176 14.74609375 8.09765625 C13.89208984 8.09443359 13.03808594 8.09121094 12.15820312 8.08789062 C11.26037109 8.07951172 10.36253906 8.07113281 9.4375 8.0625 C8.53580078 8.05798828 7.63410156 8.05347656 6.70507812 8.04882812 C4.46998686 8.03700225 2.23502563 8.0205222 0 8 C0 5.36 0 2.72 0 0 Z " fill="#FEFAF8" transform="translate(435,475)"/>
<path d="M0 0 C1.1859375 0.00257813 2.371875 0.00515625 3.59375 0.0078125 C4.7796875 0.00523437 5.965625 0.00265625 7.1875 0 C10.09375 0.1328125 10.09375 0.1328125 11.09375 1.1328125 C11.2265625 2.9453125 11.2265625 2.9453125 11.21875 5.1328125 C11.22132813 5.8546875 11.22390625 6.5765625 11.2265625 7.3203125 C11.09375 9.1328125 11.09375 9.1328125 10.09375 10.1328125 C7.74061445 10.20552991 5.38541332 10.21652118 3.03125 10.1953125 C1.74089844 10.18628906 0.45054687 10.17726563 -0.87890625 10.16796875 C-1.87792969 10.15636719 -2.87695312 10.14476562 -3.90625 10.1328125 C-3.93314216 8.65374358 -3.95259621 7.17453767 -3.96875 5.6953125 C-3.98035156 4.87160156 -3.99195313 4.04789063 -4.00390625 3.19921875 C-3.84881748 -0.08245954 -3.33220469 0.15227817 0 0 Z " fill="#F1F4F5" transform="translate(392.90625,522.8671875)"/>
<path d="M0 0 C3.14581423 -0.02888514 6.29159469 -0.04675923 9.4375 -0.0625 C10.33533203 -0.07087891 11.23316406 -0.07925781 12.15820312 -0.08789062 C13.01220703 -0.09111328 13.86621094 -0.09433594 14.74609375 -0.09765625 C15.93223267 -0.10551147 15.93223267 -0.10551147 17.14233398 -0.11352539 C19 0 19 0 20 1 C20.125 3.5 20.125 3.5 20 6 C19 7 19 7 17.14233398 7.11352539 C16.35157471 7.10828857 15.56081543 7.10305176 14.74609375 7.09765625 C13.89208984 7.09443359 13.03808594 7.09121094 12.15820312 7.08789062 C11.26037109 7.07951172 10.36253906 7.07113281 9.4375 7.0625 C8.53580078 7.05798828 7.63410156 7.05347656 6.70507812 7.04882812 C4.46998686 7.03700225 2.23502563 7.0205222 0 7 C0 4.69 0 2.38 0 0 Z " fill="#FEFDFD" transform="translate(738,475)"/>
<path d="M0 0 C3.14581423 -0.02888514 6.29159469 -0.04675923 9.4375 -0.0625 C10.33533203 -0.07087891 11.23316406 -0.07925781 12.15820312 -0.08789062 C13.01220703 -0.09111328 13.86621094 -0.09433594 14.74609375 -0.09765625 C15.93223267 -0.10551147 15.93223267 -0.10551147 17.14233398 -0.11352539 C19 0 19 0 20 1 C20.125 3.5 20.125 3.5 20 6 C19 7 19 7 17.14233398 7.11352539 C16.35157471 7.10828857 15.56081543 7.10305176 14.74609375 7.09765625 C13.89208984 7.09443359 13.03808594 7.09121094 12.15820312 7.08789062 C11.26037109 7.07951172 10.36253906 7.07113281 9.4375 7.0625 C8.53580078 7.05798828 7.63410156 7.05347656 6.70507812 7.04882812 C4.46998686 7.03700225 2.23502563 7.0205222 0 7 C0 4.69 0 2.38 0 0 Z " fill="#FEFDFD" transform="translate(497,475)"/>
<path d="M0 0 C3.35069669 3.85330119 5.01616413 8.34824694 7 13 C2.71 13 -1.58 13 -6 13 C-4.30119563 7.90358688 -2.69062201 4.48437002 0 0 Z " fill="#FDF7F4" transform="translate(118,473)"/>
<path d="M0 0 C2.35716404 2.15454249 3.78966144 4.19719874 5.1875 7.0625 C5.53167969 7.75472656 5.87585938 8.44695312 6.23046875 9.16015625 C7 11 7 11 7 13 C3.04 13 -0.92 13 -5 13 C-4.22998773 9.14993864 -3.6738858 6.99223427 -1.9375 3.6875 C-1.57527344 2.99011719 -1.21304687 2.29273438 -0.83984375 1.57421875 C-0.56269531 1.05472656 -0.28554688 0.53523438 0 0 Z " fill="#FDF7F5" transform="translate(340,473)"/>
<path d="M0 0 C1.98 0 3.96 0 6 0 C6.08090971 1.62418745 6.13914995 3.24951745 6.1875 4.875 C6.22230469 5.77992188 6.25710938 6.68484375 6.29296875 7.6171875 C6.19628906 8.40351562 6.09960938 9.18984375 6 10 C3 12 3 12 -1 12 C-0.7525 10.9790625 -0.7525 10.9790625 -0.5 9.9375 C0.07089059 6.5835178 0.06659023 3.39610195 0 0 Z " fill="#214E60" transform="translate(419,532)"/>
<path d="M0 0 C3.96 0 7.92 0 12 0 C12 1.65 12 3.3 12 5 C8.04 5 4.08 5 0 5 C0 3.35 0 1.7 0 0 Z " fill="#E3E8EB" transform="translate(459,523)"/>
<path d="M0 0 C3.63 0 7.26 0 11 0 C11.33 1.32 11.66 2.64 12 4 C11 5 11 5 8.49609375 5.09765625 C6.98208984 5.08025391 6.98208984 5.08025391 5.4375 5.0625 C4.42558594 5.05347656 3.41367187 5.04445313 2.37109375 5.03515625 C1.58863281 5.02355469 0.80617188 5.01195312 0 5 C0 3.35 0 1.7 0 0 Z " fill="#ECF0F1" transform="translate(356,523)"/>
<path d="M0 0 C0.66 0 1.32 0 2 0 C2.99 2.31 3.98 4.62 5 7 C2.69 7 0.38 7 -2 7 C-1.125 2.25 -1.125 2.25 0 0 Z " fill="#EBEFF1" transform="translate(654,523)"/>
<path d="M0 0 C0.66 0 1.32 0 2 0 C2.99 2.31 3.98 4.62 5 7 C2.69 7 0.38 7 -2 7 C-1.125 2.25 -1.125 2.25 0 0 Z " fill="#ECF0F1" transform="translate(574,523)"/>
<path d="M0 0 C0.66 0 1.32 0 2 0 C3.4606285 2.64738916 4 3.89448334 4 7 C2.02 7 0.04 7 -2 7 C-1.125 2.25 -1.125 2.25 0 0 Z " fill="#EEF1F3" transform="translate(500,523)"/>
</svg>
